<?xml version="1.0" encoding="utf-8"?>
<!-- Generator: Adobe Illustrator 26.0.3, SVG Export Plug-In . SVG Version: 6.00 Build 0)  -->
<svg version="1.1" id="Layer_1" xmlns="http://www.w3.org/2000/svg" xmlns:xlink="http://www.w3.org/1999/xlink" x="0px" y="0px"
	 viewBox="0 0 900 900" style="enable-background:new 0 0 900 900;" xml:space="preserve">
<style type="text/css">
	.st0{fill:#FBB040;stroke:#000000;stroke-miterlimit:10;}
</style>
<path class="st0" d="M450.01,49.02c-221.73,0-401.48,179.75-401.48,401.48s179.75,401.47,401.48,401.47S851.47,672.23,851.47,450.5
	S671.73,49.02,450.01,49.02z M572.14,100.95l-23.28,203.63c-2.84-0.78-5.82-1.21-8.9-1.21c-5.27,0-10.25,1.22-14.68,3.38
	L476.76,81.29C509.95,83.65,541.95,90.4,572.14,100.95z M561.21,336.93c0,11.73-9.52,21.25-21.25,21.25
	c-11.74,0-21.26-9.52-21.26-21.25c0-11.74,9.52-21.26,21.26-21.26C551.7,315.67,561.21,325.19,561.21,336.93z M108.64,451.95
	c0-75.44,60.45-136.75,135.55-138.16c-25.88-21.07-42.42-53.19-42.42-89.17c0-63.48,51.46-114.93,114.93-114.93
	s114.93,51.46,114.93,114.93c0,60.13-46.17,109.46-104.99,114.5c35.32,25.03,58.38,66.23,58.38,112.82
	c0,76.32-61.87,138.19-138.19,138.19S108.64,528.27,108.64,451.95z M450.01,820.68c-115.58,0-218.79-52.97-286.67-135.96
	c8.51,3.51,17.84,5.46,27.62,5.46c31.59,0,58.44-20.22,68.35-48.42c14.66-2.99,29.31-6.45,43.96-8.91
	c12.03-2.02,24.06-3.33,36.09-4.81c4.84,6.37,12.49,10.48,21.11,10.48c8.32,0,15.75-3.85,20.61-9.86
	c33.1,7.52,66.62,13.96,99.45,22.19c33.37,8.38,65.89,18.97,99.08,27.82c2.54,5.71,7.75,9.97,14.06,11.16
	c8.59,13.07,17.73,26.03,25.38,39.29c7.51,13.01,13.77,26.28,20.36,39.48C583.99,801.67,519.22,820.68,450.01,820.68z M660.38,755.1
	c-8.15-11.9-16.61-23.68-23.72-36c-7.93-13.72-14.12-28.12-20.98-42.26c0.62-1.9,0.97-3.92,0.97-6.02c0-1.14-0.12-2.24-0.31-3.33
	c12.41-9.45,24.66-19.28,37.53-27.63c15.71-10.2,32.46-17.91,48.55-27.19c0.73,0.11,1.47,0.19,2.22,0.19
	c8.21,0,14.85-6.65,14.85-14.85c0-8.2-6.64-14.85-14.85-14.85c-0.47,0-0.94,0.03-1.41,0.07c-16.01-15.21-33.51-29.49-49.03-45.01
	c-9.86-9.86-18.77-20.32-27.88-30.64c0.6-0.66,1.18-1.34,1.71-2.06c24.9-0.43,49.55-3.05,74.54-2.59
	c25.93,0.47,52.24,4.34,78.25,5.49c4.93,9.19,14.62,15.44,25.78,15.44c2.22,0,4.37-0.26,6.45-0.72
	C793.97,618.96,737.91,701.45,660.38,755.1z M806.59,465.39c-8.03,0-15.3,3.24-20.59,8.48c-27.5-0.16-55.5,2.96-82.95,2.45
	c-26.04-0.47-51.58-4.12-77.51-5.28c-4.79-4.82-11.44-7.81-18.78-7.81c-14.62,0-26.48,11.86-26.48,26.49s11.86,26.49,26.48,26.49
	c1.57,0,3.1-0.14,4.59-0.4c11.72,10.48,23.9,20.72,34.8,31.62c15.51,15.51,28.94,32.08,43.89,47.88c-0.16,0.87-0.26,1.78-0.26,2.7
	c0,0.66,0.06,1.3,0.15,1.94c-14.74,10.66-28.8,22.18-44.1,32.11c-12.35,8.02-25.5,15.02-38.46,22.25c-2.94-1.8-6.39-2.85-10.09-2.85
	c-4.71,0-9.03,1.68-12.39,4.48c-33.64-7.86-68.27-13.95-101.63-22.31c-32.79-8.23-64.55-18.3-96.93-27.26
	c-2.59-11.91-13.19-20.83-25.87-20.83c-10.36,0-19.31,5.94-23.67,14.6c-13.79,2.89-27.6,6.07-41.36,8.39
	c-10.76,1.8-21.48,2.99-32.2,4.25c-0.23-3.3-0.69-6.53-1.34-9.69c67.99-6.62,122.89-57.94,134.92-124.19
	c0.98-0.02,1.97-0.05,2.95-0.05c3,0,5.98,0.1,8.95,0.25c9.07,13.07,24.17,21.63,41.29,21.63c27.74,0,50.23-22.49,50.23-50.24
	c0-27.74-22.49-50.23-50.23-50.23c-18.85,0-35.26,10.38-43.85,25.73c-2.11,0.11-4.24,0.17-6.39,0.17c-0.86,0-1.73-0.03-2.6-0.05
	c-4.54-27.04-16.19-51.66-32.98-71.87c3.21-2.27,6.29-4.68,9.25-7.23c46.14-21.43,78.15-68.15,78.15-122.38
	c0-26.81-7.84-51.78-21.32-72.78c13.88-0.99,25.99-8.39,33.36-19.28l43.07,200.13c-0.18,1.39-0.28,2.79-0.28,4.23
	c0,18.52,15.02,33.54,33.55,33.54c18.52,0,33.54-15.02,33.54-33.54c0-4.92-1.07-9.59-2.97-13.8l24.39-213.35
	c132.42,56.4,225.25,187.72,225.25,340.73c0,6.04-0.15,12.04-0.44,18.01C815.78,466.52,811.33,465.39,806.59,465.39z"/>
</svg>
