<?xml version="1.0" encoding="utf-8"?>
<!-- Generator: Adobe Illustrator 26.0.3, SVG Export Plug-In . SVG Version: 6.00 Build 0)  -->
<svg version="1.1" id="Layer_1" xmlns="http://www.w3.org/2000/svg" xmlns:xlink="http://www.w3.org/1999/xlink" x="0px" y="0px"
	 viewBox="0 0 150 150" style="enable-background:new 0 0 150 150;" xml:space="preserve">
<style type="text/css">
	.st0{fill:#E5E14B;stroke:#000000;stroke-miterlimit:10;}
</style>
<path class="st0" d="M131.79,62.19c-0.07-0.03-0.15-0.04-0.24-0.04l-1.22,0.01l-1.5,0.02l-1.06,0.01c-0.08-0.31-0.15-0.62-0.24-0.94
	l2.32-1.25l1-0.54c0.63-0.34,0.35-1.3-0.37-1.24l-1.21,0.1l-2.55,0.2c-0.1-0.31-0.2-0.61-0.31-0.92l2.23-1.41l0.96-0.61
	c0.6-0.38,0.26-1.32-0.45-1.21l-1.2,0.18l-2.53,0.38c-0.12-0.3-0.24-0.6-0.37-0.89l2.12-1.56l0.92-0.67
	c0.58-0.42,0.16-1.33-0.54-1.18l-1.19,0.27l-2.49,0.56c-0.14-0.29-0.28-0.58-0.43-0.87l2-1.7l0.87-0.74
	c0.55-0.46,0.07-1.34-0.62-1.14l-1.17,0.35l-2.44,0.73c-0.16-0.28-0.32-0.56-0.49-0.84l1.88-1.83l0.81-0.8
	c0.51-0.5-0.02-1.34-0.69-1.09l-1.14,0.43l-2.38,0.89c-0.18-0.27-0.36-0.54-0.55-0.8l1.74-1.96l0.76-0.85
	c0.48-0.53-0.12-1.34-0.77-1.04l-1.11,0.51l-2.31,1.06c-0.2-0.26-0.4-0.51-0.6-0.76l1.6-2.07l0.7-0.9c0.44-0.57-0.21-1.33-0.84-0.98
	l-1.07,0.58l-2.24,1.22c-0.22-0.24-0.44-0.48-0.66-0.72l1.46-2.18l0.63-0.95c0.4-0.6-0.3-1.31-0.91-0.92l-1.03,0.66l-2.15,1.37
	c-0.23-0.22-0.47-0.45-0.71-0.67l1.3-2.28l0.56-0.99c0.35-0.62-0.39-1.28-0.97-0.86l-0.98,0.73l-2.05,1.52
	c-0.25-0.21-0.5-0.41-0.75-0.61l1.14-2.37l0.49-1.03c0.31-0.64-0.48-1.25-1.03-0.79l-0.92,0.79l-1.94,1.66
	c-0.26-0.19-0.52-0.37-0.79-0.56l0.97-2.45l0.42-1.06c0.26-0.66-0.57-1.22-1.08-0.71l-0.87,0.85l-1.82,1.8
	c-0.27-0.17-0.55-0.34-0.82-0.5l0.8-2.51l0.35-1.08c0.22-0.68-0.65-1.17-1.12-0.64l-0.81,0.91l-1.69,1.92
	c-0.28-0.15-0.57-0.3-0.86-0.45l0.62-2.56l0.27-1.11c0.17-0.69-0.73-1.13-1.17-0.56l-0.74,0.97l-1.55,2.03
	c-0.29-0.13-0.59-0.26-0.89-0.39l0.44-2.6l0.19-1.12c0.12-0.7-0.81-1.07-1.2-0.47l-0.67,1.02l-1.41,2.13
	c-0.3-0.11-0.61-0.22-0.91-0.32l0.26-2.62l0.11-1.13c0.07-0.71-0.88-1.01-1.23-0.39l-0.6,1.06l-1.25,2.22
	c-0.31-0.09-0.62-0.18-0.93-0.26l0.08-2.63l0.03-1.14c0.02-0.71-0.95-0.95-1.26-0.3l-0.52,1.1l-1.09,2.3
	c-0.32-0.07-0.63-0.13-0.95-0.19l-0.11-2.63l-0.05-1.14c-0.03-0.71-1.01-0.88-1.28-0.21l-0.44,1.13l-0.93,2.37
	c-0.32-0.05-0.64-0.09-0.96-0.13l-0.29-2.61l-0.13-1.13c-0.08-0.71-1.07-0.81-1.29-0.12l-0.36,1.16l-0.76,2.43
	c-0.32-0.02-0.65-0.04-0.97-0.06l-0.47-2.58l-0.2-1.12c-0.13-0.7-1.13-0.73-1.29-0.03l-0.28,1.18l-0.59,2.48
	c-0.32,0-0.65,0-0.97,0.01L73.2,18.2l-0.28-1.1c-0.18-0.69-1.18-0.65-1.29,0.06l-0.2,1.2l-0.42,2.51c-0.32,0.02-0.65,0.05-0.97,0.07
	l-0.83-2.49l-0.36-1.08c-0.22-0.68-1.22-0.57-1.29,0.15l-0.11,1.21l-0.24,2.54c-0.32,0.04-0.64,0.09-0.96,0.15l-1-2.43l-0.43-1.05
	c-0.27-0.66-1.25-0.48-1.27,0.23l-0.03,1.22l-0.06,2.55c-0.31,0.07-0.63,0.14-0.94,0.21l-1.17-2.36l-0.5-1.02
	c-0.32-0.64-1.28-0.39-1.25,0.32l0.05,1.22l0.12,2.56c-0.15,0.04-0.31,0.09-0.46,0.13c-0.15,0.05-0.31,0.09-0.46,0.14l-1.33-2.28
	l-0.57-0.98c-0.36-0.62-1.31-0.3-1.23,0.41l0.14,1.21l0.29,2.54c-0.3,0.11-0.61,0.22-0.91,0.34l-1.49-2.18l-0.64-0.94
	c-0.4-0.59-1.33-0.21-1.2,0.49l0.22,1.2l0.47,2.51c-0.3,0.13-0.59,0.26-0.88,0.4l-1.63-2.07l-0.71-0.89
	c-0.44-0.56-1.34-0.12-1.16,0.58l0.31,1.18l0.64,2.47c-0.29,0.15-0.57,0.31-0.85,0.46l-1.77-1.94l-0.77-0.84
	c-0.48-0.53-1.34-0.02-1.11,0.66l0.39,1.15L45.87,29c-0.28,0.17-0.55,0.35-0.82,0.52l-1.9-1.81l-0.82-0.79
	c-0.52-0.49-1.34,0.07-1.07,0.73l0.47,1.12l0.98,2.35c-0.26,0.19-0.52,0.38-0.78,0.58l-2.02-1.68l-0.88-0.73
	c-0.06-0.05-0.13-0.09-0.19-0.11c-0.12-0.05-0.24-0.05-0.35-0.03c-0.04,0.01-0.07,0.02-0.1,0.03c-0.07,0.03-0.13,0.06-0.19,0.11
	c-0.2,0.16-0.31,0.42-0.23,0.69c0.01,0.04,0.03,0.08,0.05,0.12l0.54,1.09l1.14,2.28c-0.25,0.21-0.5,0.42-0.74,0.63l-2.13-1.53
	l-0.92-0.66c-0.04-0.03-0.07-0.05-0.11-0.07c-0.48-0.23-1.02,0.21-0.93,0.71c0.01,0.04,0.02,0.08,0.03,0.12
	c0.01,0.04,0.03,0.08,0.06,0.12l0.48,0.81l0.14,0.24l1.3,2.19c-0.23,0.22-0.47,0.45-0.69,0.68l-2.23-1.38l-0.97-0.6
	c-0.19-0.12-0.39-0.13-0.56-0.07c-0.07,0.02-0.13,0.06-0.19,0.1c-0.06,0.04-0.11,0.1-0.15,0.16c-0.14,0.21-0.17,0.49,0,0.75l0.69,1
	l1.45,2.1c-0.22,0.24-0.42,0.49-0.64,0.73l-2.34-1.23l-1.01-0.53c-0.63-0.33-1.27,0.44-0.82,1l0.76,0.95l1.6,2
	c-0.2,0.25-0.39,0.51-0.59,0.77l-2.42-1.06l-1.04-0.46c-0.65-0.29-1.24,0.53-0.75,1.05l0.82,0.9l1.74,1.89
	c-0.18,0.27-0.36,0.53-0.54,0.8l-2.48-0.89l-1.07-0.38c-0.67-0.24-1.2,0.61-0.68,1.1l0.88,0.84l1.86,1.76
	c-0.16,0.28-0.32,0.56-0.48,0.84l-2.54-0.71l-1.1-0.31c-0.69-0.19-1.15,0.69-0.6,1.15l0.94,0.77l1.98,1.63
	c-0.14,0.29-0.28,0.58-0.41,0.87l-2.59-0.54l-1.11-0.23c-0.7-0.14-1.1,0.77-0.52,1.19l0.99,0.71l2.09,1.48
	c-0.12,0.3-0.24,0.6-0.35,0.9l-2.62-0.35l-1.13-0.15c-0.71-0.1-1.04,0.85-0.43,1.22l1.04,0.63l2.18,1.33
	c-0.1,0.31-0.2,0.61-0.3,0.92l-2.63-0.17l-1.14-0.07c-0.71-0.05-0.98,0.92-0.35,1.25l1.08,0.56l2.27,1.18
	c-0.08,0.31-0.16,0.63-0.23,0.94l-2.63,0.01l-1.14,0.01c-0.72,0-0.92,0.98-0.26,1.27l1.12,0.48l2.34,1.01
	c-0.06,0.32-0.11,0.64-0.16,0.96l-2.62,0.2l-1.14,0.09c-0.71,0.05-0.84,1.04-0.17,1.28l1.15,0.4l2.4,0.85
	c-0.03,0.32-0.06,0.65-0.09,0.97l-2.6,0.38l-1.13,0.16c-0.71,0.1-0.77,1.1-0.08,1.29l1.17,0.32l2.45,0.68
	c-0.01,0.32-0.02,0.65-0.02,0.97l-2.57,0.56l-1.11,0.24c-0.7,0.15-0.69,1.15,0.01,1.29l1.19,0.24l2.5,0.5
	c0.01,0.32,0.02,0.65,0.04,0.97l-2.52,0.74l-1.09,0.32c-0.69,0.2-0.61,1.2,0.1,1.29l1.21,0.16l2.53,0.33
	c0.03,0.32,0.06,0.64,0.1,0.96l-2.46,0.91l-1.07,0.4c-0.67,0.25-0.52,1.24,0.19,1.28l1.22,0.07l2.55,0.15
	c0.06,0.32,0.11,0.63,0.17,0.95l-2.4,1.09l-1.04,0.47c-0.65,0.29-0.44,1.27,0.28,1.26l1.22-0.01l2.56-0.03
	c0.08,0.31,0.16,0.62,0.24,0.93l-2.32,1.25l-1,0.54c-0.63,0.34-0.35,1.3,0.37,1.24l1.21-0.1l2.55-0.2c0.1,0.31,0.2,0.61,0.31,0.91
	L20.9,94.5l-0.96,0.61c-0.6,0.38-0.26,1.32,0.45,1.21l1.2-0.18l2.53-0.38c0.12,0.3,0.24,0.6,0.37,0.9l-2.12,1.56l-0.92,0.67
	c-0.58,0.42-0.16,1.33,0.54,1.18l1.19-0.27l2.49-0.56c0.14,0.29,0.29,0.58,0.43,0.87l-2.01,1.7l-0.87,0.74
	c-0.55,0.46-0.07,1.34,0.62,1.14l1.17-0.35l2.44-0.73c0.16,0.28,0.32,0.56,0.49,0.84l-1.88,1.83l-0.81,0.8
	c-0.51,0.5,0.02,1.34,0.69,1.09l1.14-0.43l2.38-0.89c0.18,0.27,0.37,0.54,0.55,0.8l-1.75,1.96l-0.76,0.85
	c-0.48,0.53,0.12,1.34,0.77,1.04l1.11-0.51l2.32-1.06c0.2,0.26,0.4,0.51,0.6,0.76l-1.6,2.07l-0.7,0.9
	c-0.44,0.57,0.21,1.33,0.84,0.98l1.07-0.58l2.24-1.22c0.22,0.24,0.44,0.48,0.66,0.71l-1.46,2.19l-0.63,0.95
	c-0.4,0.6,0.3,1.31,0.91,0.92l1.03-0.66l2.15-1.37c0.23,0.22,0.46,0.45,0.7,0.67l-1.3,2.28l-0.56,0.99
	c-0.35,0.62,0.39,1.28,0.97,0.86l0.98-0.73l2.05-1.52c0.25,0.21,0.5,0.41,0.75,0.61l-1.14,2.37l-0.49,1.03
	c-0.31,0.64,0.48,1.25,1.03,0.79l0.92-0.79l1.94-1.66c0.26,0.19,0.52,0.38,0.79,0.56l-0.97,2.45l-0.42,1.06
	c-0.26,0.66,0.57,1.22,1.08,0.71l0.87-0.85l1.82-1.8c0.27,0.17,0.55,0.34,0.82,0.51l-0.8,2.51l-0.35,1.08
	c-0.22,0.68,0.65,1.17,1.12,0.64l0.81-0.91l1.69-1.92c0.28,0.15,0.57,0.3,0.86,0.45l-0.62,2.57l-0.27,1.11
	c-0.17,0.69,0.73,1.13,1.17,0.56l0.74-0.97l1.56-2.03c0.29,0.13,0.59,0.26,0.88,0.39l-0.22,1.29l-0.22,1.3l-0.19,1.12
	c-0.12,0.7,0.81,1.07,1.2,0.47l0.67-1.02l1.41-2.13c0.3,0.11,0.61,0.22,0.91,0.33l-0.26,2.62l-0.11,1.13
	c-0.05,0.53,0.47,0.84,0.88,0.69c0.01,0,0.01,0,0.01-0.01c0.13-0.05,0.25-0.15,0.34-0.3l0.6-1.06l1.25-2.22
	c0.31,0.09,0.62,0.18,0.93,0.26l-0.08,2.63l-0.03,1.14c0,0.04,0,0.09,0.01,0.13c0.01,0.04,0.02,0.08,0.03,0.12
	c0.03,0.07,0.06,0.14,0.11,0.19c0.12,0.14,0.29,0.22,0.47,0.24c0.07,0.01,0.14,0,0.21-0.02c0.07-0.02,0.14-0.05,0.2-0.09
	c0.09-0.06,0.17-0.15,0.23-0.27l0.52-1.1l1.09-2.3c0.32,0.07,0.63,0.13,0.95,0.19l0.11,2.63l0.05,1.14
	c0.03,0.71,1.01,0.88,1.28,0.21l0.44-1.13l0.93-2.37c0.32,0.05,0.64,0.09,0.96,0.13l0.29,2.61l0.13,1.13
	c0.08,0.71,1.07,0.81,1.29,0.13l0.36-1.16l0.76-2.43c0.32,0.02,0.65,0.05,0.97,0.06l0.47,2.58l0.2,1.12
	c0.13,0.7,1.13,0.73,1.29,0.03l0.28-1.18l0.59-2.48c0.32,0,0.65-0.01,0.97-0.01l0.65,2.55l0.28,1.1c0.18,0.69,1.18,0.65,1.29-0.06
	l0.2-1.2l0.42-2.51c0.32-0.02,0.64-0.05,0.97-0.08l0.83,2.5l0.36,1.08c0.22,0.68,1.22,0.57,1.29-0.15l0.11-1.21l0.24-2.54
	c0.32-0.04,0.64-0.09,0.96-0.14l1,2.43l0.43,1.05c0.27,0.66,1.25,0.48,1.27-0.23l0.03-1.22l0.06-2.56c0.31-0.07,0.63-0.13,0.94-0.21
	l1.17,2.36l0.5,1.02c0.32,0.64,1.28,0.39,1.25-0.32l-0.05-1.22l-0.12-2.56c0.15-0.04,0.31-0.08,0.46-0.13
	c0.15-0.05,0.31-0.1,0.46-0.14l1.33,2.28l0.57,0.98c0.36,0.62,1.31,0.3,1.23-0.41l-0.14-1.21l-0.29-2.54
	c0.3-0.11,0.61-0.22,0.91-0.34l1.49,2.18l0.64,0.94c0.4,0.59,1.33,0.21,1.2-0.49l-0.22-1.2l-0.47-2.51c0.3-0.13,0.59-0.26,0.88-0.4
	l1.63,2.06l0.71,0.89c0.44,0.56,1.34,0.12,1.16-0.58l-0.31-1.18l-0.64-2.47c0.29-0.15,0.57-0.31,0.85-0.46l1.77,1.94l0.77,0.84
	c0.48,0.53,1.34,0.02,1.11-0.66l-0.39-1.15l-0.81-2.41c0.28-0.17,0.55-0.35,0.82-0.52l1.9,1.81l0.82,0.79
	c0.52,0.49,1.34-0.07,1.07-0.73l-0.47-1.12l-0.98-2.35c0.26-0.19,0.52-0.38,0.78-0.58l2.02,1.67l0.88,0.73
	c0.55,0.46,1.33-0.16,1.01-0.8l-0.54-1.09l-1.14-2.28c0.25-0.21,0.5-0.42,0.74-0.63l2.13,1.53l0.92,0.66
	c0.58,0.42,1.32-0.26,0.95-0.87l-0.62-1.05l-1.3-2.19c0.23-0.22,0.46-0.45,0.69-0.68l2.24,1.38l0.97,0.6
	c0.61,0.38,1.3-0.35,0.89-0.94l-0.69-1l-1.45-2.1c0.22-0.24,0.43-0.48,0.64-0.73l2.33,1.22l1.01,0.53c0.63,0.33,1.27-0.44,0.82-1
	l-0.76-0.95l-1.59-2c0.2-0.25,0.39-0.51,0.59-0.77l2.41,1.06l1.04,0.46c0.65,0.29,1.24-0.53,0.75-1.05l-0.82-0.9l-1.73-1.88
	c0.18-0.27,0.36-0.53,0.53-0.8l2.48,0.89l1.07,0.38c0.67,0.24,1.2-0.61,0.68-1.1l-0.88-0.84l-1.86-1.76
	c0.16-0.28,0.32-0.56,0.48-0.84l2.54,0.71l1.1,0.31c0.69,0.19,1.15-0.69,0.6-1.15l-0.94-0.77l-1.98-1.63
	c0.14-0.29,0.28-0.58,0.42-0.87l2.59,0.53l1.11,0.23c0.7,0.14,1.1-0.77,0.52-1.19l-0.99-0.71l-2.09-1.48c0.12-0.3,0.24-0.6,0.35-0.9
	l2.61,0.35l1.13,0.15c0.71,0.1,1.04-0.85,0.43-1.22l-1.04-0.63l-2.18-1.33c0.1-0.31,0.2-0.61,0.29-0.92l2.63,0.17l1.14,0.07
	c0.71,0.05,0.98-0.92,0.35-1.25l-1.08-0.56l-2.27-1.18c0.08-0.31,0.16-0.63,0.23-0.94l2.63-0.01l1.14-0.01
	c0.71,0,0.92-0.98,0.26-1.27l-1.12-0.48l-2.34-1.01c0.06-0.32,0.11-0.64,0.16-0.96l2.62-0.2l1.14-0.09
	c0.71-0.05,0.84-1.04,0.17-1.28l-1.15-0.4l-2.4-0.85c0.03-0.32,0.06-0.64,0.09-0.97l2.6-0.38l1.13-0.16c0.71-0.1,0.77-1.1,0.08-1.29
	l-1.17-0.32l-2.46-0.68c0.01-0.32,0.02-0.65,0.02-0.97l2.57-0.56l1.11-0.24c0.7-0.15,0.69-1.15-0.01-1.29L131.86,74l-2.5-0.5
	c-0.01-0.32-0.03-0.65-0.04-0.97l2.52-0.74l1.09-0.32c0.69-0.2,0.61-1.2-0.1-1.29l-1.21-0.16l-2.53-0.33
	c-0.03-0.32-0.07-0.64-0.11-0.96l2.47-0.91l0.97-0.36l0.1-0.04c0.21-0.08,0.34-0.23,0.4-0.4c0.13-0.38-0.1-0.85-0.59-0.88
	l-1.22-0.07l-2.55-0.15c-0.06-0.32-0.11-0.63-0.18-0.95l2.4-1.09l1.04-0.47c0.12-0.06,0.21-0.13,0.28-0.23
	c0.06-0.09,0.1-0.2,0.11-0.3c0-0.04,0-0.07,0-0.11c0-0.07-0.02-0.14-0.05-0.21c-0.03-0.07-0.06-0.13-0.11-0.19
	C131.99,62.3,131.9,62.23,131.79,62.19z M61.55,30.57c23.11-6.83,47.31,5.07,56.33,26.84c-6.91,2.88-10.25,6.26-18.91,8.81
	c-1.42,0.42-2.84,0.78-4.25,1.11C90.77,57.45,80,51.79,69.4,54.52c-2.62,0.68-5,1.81-7.08,3.29c-1.06-1.1-2.13-2.19-3.27-3.27
	c-6.6-6.27-10.12-8.62-16.12-13.36C48.07,36.4,54.36,32.7,61.55,30.57z M61.1,120c-14.47-4.44-26.5-15.82-31.11-31.42
	c-4.39-14.85-1.04-30.15,7.69-41.59c5.95,4.54,10.54,5.75,17.09,11.96c1.08,1.02,2.09,2.07,3.09,3.12
	c-3.99,5.09-5.65,11.91-3.91,18.65c1.68,6.53,6.19,11.57,11.87,14.18c-0.42,1.46-0.83,2.95-1.2,4.46
	C62.48,108.21,62.21,112.44,61.1,120z M88,120.13c-6.45,1.9-12.98,2.35-19.25,1.53c0.96-7.43-0.29-12.01,1.82-20.79
	c0.35-1.44,0.74-2.84,1.16-4.23c2.73,0.39,5.58,0.26,8.41-0.47c10.38-2.68,17.03-12.5,16.05-22.84c1.48-0.36,2.97-0.75,4.46-1.19
	c8.73-2.58,12.52-4.45,19.62-7.28C125.8,88.75,111.82,113.1,88,120.13z"/>
</svg>
