<?xml version="1.0" encoding="utf-8"?>
<!-- Generator: Adobe Illustrator 26.0.3, SVG Export Plug-In . SVG Version: 6.00 Build 0)  -->
<svg version="1.1" id="Layer_1" xmlns="http://www.w3.org/2000/svg" xmlns:xlink="http://www.w3.org/1999/xlink" x="0px" y="0px"
	 viewBox="0 0 300 300" style="enable-background:new 0 0 300 300;" xml:space="preserve">
<style type="text/css">
	.st0{fill:#E5E14B;stroke:#000000;stroke-miterlimit:10;}
</style>
<path class="st0" d="M234.88,91.05l2.85-5.42l-6.04,1.04l2.56-5.56l-5.97,1.35l2.27-5.69l-5.9,1.66l1.97-5.8l-5.8,1.97l1.66-5.9
	l-5.69,2.27l1.35-5.97l-5.56,2.56l1.04-6.04l0,0l0,0l-5.42,2.85l0.72-6.08l-5.26,3.13l0.4-6.11l-5.09,3.4l0.08-6.12l-4.91,3.66
	l-0.24-6.12l-4.71,3.91l-0.56-6.1l-4.5,4.16l-0.88-6.06l-4.27,4.39l-1.2-6.01l-4.04,4.6l-1.51-5.94l-3.79,4.81l-1.82-5.85l-3.54,5
	l-2.12-5.75l-3.27,5.18l-2.42-5.63l-2.99,5.34l-2.71-5.49l-2.71,5.49l-2.99-5.34l-2.42,5.63l-3.27-5.18l-2.12,5.75l-3.54-5
	l-1.82,5.85l-3.79-4.81l-1.51,5.94l-4.04-4.6l-1.2,6.01l-4.28-4.39l-0.88,6.06l-4.5-4.16l-0.56,6.1l-4.71-3.91l-0.24,6.12
	l-4.91-3.66l0.08,6.12l-5.09-3.4l0.4,6.11l-5.26-3.13l0.72,6.08l-5.42-2.85l0,0l0,0l1.04,6.04l-5.56-2.56l1.35,5.97l-5.69-2.27
	l1.66,5.9l-5.8-1.97l1.97,5.8l-5.9-1.66l2.27,5.69l-5.97-1.35l2.56,5.56l-6.04-1.04l2.85,5.42l-6.08-0.72l3.13,5.26l-6.11-0.4
	l3.4,5.09l-6.12-0.08l3.66,4.91l-6.12,0.24l3.91,4.71l-6.1,0.56l4.16,4.5l-6.06,0.88l4.39,4.27l-6.01,1.2l4.6,4.04l-5.94,1.51
	l4.81,3.79l-5.85,1.82l5,3.54l-5.75,2.12l5.18,3.27L40.69,144l5.34,2.99l-5.49,2.71l5.49,2.71l-5.34,2.99l5.63,2.42l-5.18,3.27
	l5.75,2.12l-5,3.54l5.85,1.82l-4.81,3.79l5.94,1.51l-4.6,4.04l6.01,1.2l-4.39,4.27l6.06,0.88l-4.16,4.5l6.1,0.56l-3.91,4.71
	l6.12,0.24l-3.66,4.91l6.12-0.08l-3.4,5.09l6.11-0.4l-3.13,5.26l6.08-0.72l-2.85,5.42l6.04-1.04l-2.56,5.56l5.97-1.35l-2.27,5.69
	l5.9-1.66l-1.97,5.8l5.8-1.97l-1.66,5.9l5.69-2.27l-1.35,5.97l5.56-2.56l-1.04,6.04l5.42-2.85l-0.72,6.08l5.26-3.13l-0.4,6.11
	l5.09-3.4l-0.08,6.12l4.91-3.66l0.24,6.12l4.71-3.91l0.56,6.1l4.5-4.16l0.88,6.06l4.28-4.39l1.2,6.01l4.04-4.6l1.51,5.94l3.79-4.81
	l1.82,5.85l3.54-5l2.12,5.75l3.27-5.18l2.42,5.63l2.99-5.34l2.71,5.49l0,0l0,0l2.71-5.49l2.99,5.34l2.42-5.63l3.27,5.18l2.12-5.75
	l3.54,5l1.82-5.85l3.79,4.81l1.51-5.94l4.04,4.6l1.2-6.01l4.27,4.39l0.88-6.06l4.5,4.16l0.56-6.1l4.71,3.91l0.24-6.12l4.91,3.66
	l-0.08-6.12l5.09,3.4l-0.4-6.11l5.26,3.13l-0.72-6.08l5.42,2.85l-1.04-6.04l5.56,2.56l-1.35-5.97l5.69,2.27l-1.66-5.9l5.8,1.97
	l-1.97-5.8l5.9,1.66l-2.27-5.69l5.97,1.35l-2.56-5.56l6.04,1.04l-2.85-5.42l6.08,0.72l-3.13-5.26l6.11,0.4l-3.4-5.09l6.12,0.08
	l-3.66-4.91l6.12-0.24l-3.91-4.71l6.1-0.56l-4.16-4.5l6.06-0.88l0,0l0,0l-4.39-4.27l6.01-1.2l-4.6-4.04l5.94-1.51l-4.81-3.79
	l5.85-1.82l-5-3.54l5.75-2.12l-5.18-3.27l5.63-2.42l-5.34-2.99l5.49-2.71l-5.49-2.71l5.34-2.99l-5.63-2.42l5.18-3.27l-5.75-2.12
	l5-3.54l-5.85-1.82l4.81-3.79l-5.94-1.51l4.6-4.04l-6.01-1.2l4.39-4.28l-6.06-0.88l4.16-4.5l-6.1-0.56l3.91-4.71l-6.12-0.24
	l3.66-4.91l-6.12,0.08l3.4-5.09l-6.11,0.4l3.13-5.26L234.88,91.05z M171.57,126.17l30.67-42.22c26.82,21.46,37.24,56.37,28.6,87.98
	l-49.64-16.13C183.25,145.15,179.81,133.86,171.57,126.17z M195.8,79.26l-30.67,42.22c-9.87-5.46-21.66-5.24-31.16-0.01
	l-30.68-42.23C130.68,61.26,167.1,60.38,195.8,79.26z M144.27,142.45c4.01-2.91,9.62-2.02,12.53,1.98
	c2.91,4.01,2.02,9.62-1.98,12.53c-4.01,2.91-9.62,2.02-12.53-1.98C139.38,150.97,140.27,145.36,144.27,142.45z M81.37,100.17
	c4.52-6.22,9.74-11.64,15.47-16.24l30.68,42.23c-1.47,1.38-2.83,2.9-4.06,4.59c-5.46,7.51-7.19,16.59-5.57,25.05l-49.63,16.13
	C61.77,148.12,65.73,121.69,81.37,100.17z M100.01,217.88c-13.82-10.04-23.69-23.5-29.3-38.37l49.63-16.13
	c2.24,4.78,5.67,9.08,10.25,12.41c4.57,3.32,9.73,5.26,14.97,5.91l0,52.18C129.68,233.15,113.83,227.92,100.01,217.88z
	 M217.72,199.24c-15.63,21.52-39.54,33.46-64.19,34.64l0-52.19c8.54-1.07,16.64-5.52,22.1-13.04c1.23-1.69,2.26-3.45,3.11-5.27
	l49.64,16.13C225.78,186.37,222.24,193.01,217.72,199.24z"/>
</svg>
