<?xml version="1.0" encoding="utf-8"?>
<!-- Generator: Adobe Illustrator 26.0.3, SVG Export Plug-In . SVG Version: 6.00 Build 0)  -->
<svg version="1.1" id="Layer_1" xmlns="http://www.w3.org/2000/svg" xmlns:xlink="http://www.w3.org/1999/xlink" x="0px" y="0px"
	 viewBox="0 0 400 400" style="enable-background:new 0 0 400 400;" xml:space="preserve">
<style type="text/css">
	.st0{fill:#E5E14B;stroke:#000000;stroke-miterlimit:10;}
</style>
<path class="st0" d="M364.88,204.48c-0.13-0.27-0.33-0.52-0.6-0.7c-0.18-0.12-0.39-0.22-0.63-0.28l-3.31-0.82l-4.09-1.01l-2.87-0.71
	c0.01-0.9,0.02-1.8,0.01-2.71l7.17-1.77l3.1-0.76c1.94-0.48,1.85-3.28-0.13-3.62l-3.36-0.58l-7.06-1.23c-0.05-0.9-0.13-1.8-0.2-2.7
	l7.03-2.27l3.04-0.98c1.91-0.61,1.61-3.4-0.38-3.6l-3.39-0.35l-7.12-0.73c-0.12-0.9-0.25-1.79-0.38-2.68l6.85-2.75l2.96-1.19
	c1.86-0.75,1.37-3.5-0.63-3.57l-3.41-0.11l-7.15-0.23c-0.18-0.89-0.37-1.77-0.56-2.66l6.63-3.21l2.87-1.39
	c1.8-0.87,1.13-3.59-0.88-3.52l-3.41,0.13l-7.13,0.27c-0.24-0.88-0.49-1.75-0.74-2.62l6.38-3.66l2.77-1.59
	c1.74-1,0.87-3.66-1.12-3.45l-3.39,0.36l-7.09,0.76c-0.3-0.86-0.61-1.71-0.92-2.56l6.1-4.09l2.65-1.78
	c1.66-1.12,0.61-3.71-1.36-3.36l-3.36,0.6l-7.02,1.25c-0.36-0.83-0.73-1.67-1.11-2.49l5.8-4.51l2.52-1.96
	c1.58-1.23,0.35-3.75-1.59-3.26l-3.31,0.83l-6.92,1.74c-0.42-0.81-0.85-1.61-1.28-2.4l5.48-4.91l2.38-2.13
	c1.49-1.34,0.09-3.76-1.81-3.14l-3.24,1.06l-6.78,2.22c-0.47-0.77-0.96-1.54-1.45-2.3l5.13-5.29l2.22-2.29
	c1.39-1.44-0.17-3.76-2.03-3l-3.16,1.28l-6.62,2.69c-0.53-0.74-1.06-1.46-1.6-2.19l4.76-5.64l2.06-2.44
	c1.29-1.53-0.43-3.74-2.23-2.85l-3.06,1.5l-6.43,3.15c-0.58-0.7-1.16-1.38-1.75-2.07l4.36-5.97l1.88-2.58
	c1.18-1.62-0.69-3.7-2.42-2.69l-2.95,1.71l-6.2,3.6c-0.62-0.65-1.25-1.3-1.88-1.94l3.93-6.26l1.7-2.7c1.07-1.7-0.95-3.64-2.61-2.52
	l-2.82,1.91l-5.93,4.02c-0.66-0.61-1.34-1.21-2.01-1.81l3.49-6.52l1.5-2.81c0.94-1.77-1.2-3.57-2.78-2.33l-2.68,2.11l-5.64,4.43
	c-0.71-0.56-1.42-1.11-2.13-1.66l3.02-6.74l1.3-2.91c0.82-1.83-1.45-3.47-2.93-2.13l-2.53,2.29l-5.31,4.8
	c-0.74-0.51-1.49-1.02-2.25-1.51l2.54-6.93l1.1-2.99c0.69-1.88-1.68-3.36-3.07-1.92l-2.36,2.46l-4.96,5.16
	c-0.78-0.46-1.56-0.91-2.35-1.36l2.05-7.08l0.89-3.06c0.56-1.92-1.91-3.24-3.2-1.7l-2.19,2.62l-4.58,5.48
	c-0.81-0.41-1.62-0.8-2.44-1.19l1.55-7.2l0.67-3.12c0.42-1.96-2.14-3.1-3.31-1.47l-2,2.76l-4.18,5.78
	c-0.84-0.35-1.68-0.69-2.52-1.02l1.04-7.28l0.45-3.16c0.28-1.98-2.35-2.94-3.4-1.24l-1.8,2.9l-3.77,6.06
	c-0.86-0.29-1.72-0.57-2.59-0.85l0.53-7.33l0.23-3.18c0.14-2-2.55-2.77-3.48-1l-1.59,3.01l-3.33,6.31
	c-0.88-0.23-1.76-0.45-2.64-0.66l0.02-7.35l0.01-3.19c0-2-2.73-2.59-3.54-0.75l-1.38,3.12l-2.89,6.53
	c-0.89-0.16-1.78-0.33-2.68-0.48l-0.5-7.34l-0.22-3.18c-0.14-2-2.91-2.39-3.59-0.5l-1.16,3.21l-2.43,6.72
	c-0.9-0.1-1.8-0.19-2.7-0.28l-1.01-7.3l-0.44-3.16c-0.27-1.98-3.07-2.18-3.61-0.25l-0.93,3.28l-1.96,6.89
	c-0.9-0.04-1.8-0.06-2.71-0.09l-1.52-7.23l-0.66-3.12c-0.41-1.96-3.21-1.96-3.62,0l-0.7,3.34l-1.48,7.02
	c-0.45,0.01-0.9,0.01-1.35,0.03c-0.45,0.02-0.9,0.04-1.35,0.06l-2.02-7.11l-0.87-3.07c-0.55-1.93-3.34-1.73-3.61,0.25l-0.47,3.38
	l-0.98,7.1c-0.9,0.09-1.8,0.18-2.69,0.28l-2.51-6.95l-1.08-3c-0.68-1.88-3.45-1.49-3.59,0.5l-0.23,3.4l-0.48,7.14
	c-0.89,0.15-1.78,0.31-2.67,0.47l-2.98-6.74l-1.29-2.92c-0.81-1.83-3.55-1.25-3.54,0.75l0.01,3.41l0.02,7.14
	c-0.88,0.21-1.76,0.43-2.64,0.66l-3.44-6.51l-1.49-2.82c-0.94-1.77-3.63-1-3.48,1l0.25,3.4l0.51,7.11
	c-0.87,0.27-1.73,0.56-2.59,0.85l-3.88-6.25l-1.68-2.71c-1.06-1.7-3.69-0.74-3.4,1.24l0.48,3.38l1.01,7.06
	c-0.85,0.33-1.69,0.67-2.53,1.02l-4.31-5.96l-1.87-2.58c-0.13-0.18-0.28-0.33-0.45-0.44c-0.29-0.2-0.6-0.31-0.93-0.33
	c-0.1-0.01-0.2,0-0.3,0.01c-0.2,0.02-0.4,0.08-0.58,0.16c-0.64,0.29-1.13,0.91-1.1,1.72c0,0.12,0.02,0.23,0.05,0.36l0.72,3.33
	l1.5,6.97c-0.82,0.39-1.64,0.79-2.45,1.19l-4.71-5.64l-2.04-2.45c-0.08-0.1-0.17-0.18-0.25-0.26c-1.15-0.97-2.91-0.14-3.02,1.27
	c-0.01,0.11-0.01,0.22,0.01,0.34c0.01,0.11,0.04,0.23,0.07,0.35l0.73,2.54l0.21,0.73l1.98,6.86c-0.79,0.45-1.58,0.89-2.36,1.36
	l-5.1-5.3l-2.21-2.3c-0.43-0.45-0.96-0.62-1.47-0.57c-0.2,0.02-0.4,0.07-0.58,0.15s-0.36,0.19-0.51,0.32
	c-0.53,0.46-0.82,1.21-0.51,2.03l1.17,3.2l2.46,6.71c-0.75,0.5-1.49,1.02-2.24,1.53l-5.48-4.96l-2.37-2.14
	c-1.49-1.34-3.75,0.3-2.93,2.13l1.39,3.11l2.93,6.54c-0.72,0.55-1.43,1.11-2.13,1.67l-5.82-4.57l-2.51-1.97
	c-1.58-1.24-3.72,0.56-2.78,2.33l1.61,3.01l3.39,6.34c-0.67,0.6-1.36,1.19-2.02,1.8l-6.11-4.15l-2.64-1.79
	c-1.66-1.12-3.67,0.82-2.61,2.52l1.81,2.89l3.82,6.08c-0.63,0.64-1.26,1.29-1.88,1.94l-6.4-3.72l-2.76-1.6
	c-1.73-1.01-3.61,1.07-2.42,2.69l2.01,2.75l4.23,5.79c-0.58,0.68-1.16,1.38-1.73,2.08l-6.65-3.26l-2.86-1.4
	c-1.8-0.88-3.52,1.32-2.23,2.85l2.2,2.61l4.62,5.48c-0.54,0.72-1.06,1.46-1.58,2.19l-6.85-2.79l-2.95-1.2
	c-1.86-0.75-3.42,1.57-2.03,3l2.37,2.45l4.99,5.15c-0.49,0.76-0.97,1.52-1.45,2.29l-7.01-2.3l-3.03-0.99
	c-1.9-0.62-3.3,1.8-1.81,3.14l2.54,2.28l5.33,4.78c-0.43,0.79-0.87,1.59-1.29,2.39l-7.14-1.8l-3.09-0.78
	c-1.94-0.49-3.17,2.03-1.59,3.26l2.69,2.09l5.64,4.39c-0.38,0.82-0.74,1.65-1.1,2.48l-7.25-1.3l-3.14-0.56
	c-1.97-0.35-3.02,2.24-1.36,3.36l2.83,1.9l5.92,3.97c-0.32,0.85-0.61,1.71-0.92,2.56l-7.32-0.79l-3.17-0.34
	c-1.99-0.21-2.86,2.45-1.12,3.45l2.96,1.7l6.18,3.55c-0.26,0.87-0.5,1.74-0.74,2.62l-7.35-0.27l-3.19-0.12
	c-2-0.07-2.68,2.64-0.88,3.52l3.07,1.49l6.43,3.12c-0.2,0.88-0.39,1.77-0.57,2.66l-7.35,0.24l-3.19,0.1c-2,0.07-2.49,2.82-0.63,3.57
	l3.16,1.27l6.64,2.67c-0.13,0.9-0.28,1.79-0.39,2.69l-7.32,0.75l-3.17,0.33c-1.99,0.2-2.29,2.99-0.38,3.6l3.25,1.05l6.82,2.2
	c-0.07,0.9-0.14,1.8-0.2,2.7l-7.27,1.27l-3.14,0.55c-1.97,0.34-2.07,3.14-0.13,3.62l3.31,0.82l6.97,1.72c-0.01,0.9-0.01,1.8,0,2.7
	l-7.18,1.77l-3.1,0.76c-1.94,0.48-1.85,3.28,0.13,3.62l3.36,0.58l7.06,1.23c0.05,0.9,0.13,1.8,0.2,2.7l-7.04,2.27l-3.04,0.98
	c-1.91,0.61-1.61,3.4,0.38,3.6l3.39,0.35l7.13,0.73c0.12,0.9,0.23,1.79,0.36,2.69l-6.84,2.75l-2.96,1.19
	c-1.86,0.75-1.37,3.5,0.63,3.57l3.41,0.11l7.15,0.23c0.18,0.89,0.37,1.77,0.57,2.66l-6.63,3.22l-2.87,1.39
	c-1.8,0.87-1.13,3.59,0.88,3.52l3.41-0.13l7.13-0.27c0.24,0.88,0.48,1.75,0.74,2.62l-6.37,3.66l-2.77,1.59
	c-1.74,1-0.87,3.66,1.12,3.45l3.39-0.36l7.09-0.76c0.3,0.86,0.62,1.71,0.94,2.56l-6.11,4.1l-2.65,1.78
	c-1.66,1.12-0.61,3.71,1.36,3.36l3.36-0.6l7.02-1.26c0.36,0.83,0.72,1.67,1.1,2.49l-5.8,4.51l-2.52,1.96
	c-1.58,1.23-0.35,3.75,1.59,3.26l3.31-0.83l6.92-1.74c0.42,0.8,0.85,1.6,1.29,2.4l-5.48,4.91l-2.38,2.13
	c-1.49,1.34-0.09,3.76,1.81,3.14l3.24-1.06l6.79-2.23c0.47,0.77,0.95,1.54,1.43,2.31l-5.13,5.28L64,289.41
	c-1.39,1.44,0.17,3.76,2.03,3l3.16-1.28l6.62-2.69c0.53,0.74,1.07,1.46,1.61,2.19l-4.76,5.64l-2.06,2.44
	c-1.29,1.53,0.43,3.74,2.23,2.85l3.06-1.5l6.44-3.16c0.57,0.7,1.15,1.39,1.74,2.07l-4.36,5.97l-1.88,2.58
	c-1.18,1.62,0.69,3.7,2.42,2.69l2.95-1.71l6.2-3.6c0.62,0.65,1.25,1.3,1.88,1.95l-3.93,6.26l-1.7,2.7c-1.07,1.7,0.95,3.64,2.61,2.52
	l2.82-1.91l5.94-4.03c0.66,0.61,1.34,1.21,2.01,1.81l-3.49,6.52l-1.5,2.81c-0.94,1.77,1.2,3.57,2.78,2.33l2.68-2.11l5.64-4.43
	c0.71,0.56,1.41,1.13,2.13,1.68l-1.5,3.36l-1.51,3.38l-1.3,2.91c-0.82,1.83,1.45,3.47,2.93,2.13l2.53-2.29l5.31-4.8
	c0.74,0.51,1.49,1.02,2.25,1.52l-2.54,6.92l-1.1,2.99c-0.52,1.41,0.69,2.6,1.91,2.49c0.02,0,0.03-0.01,0.05-0.01
	c0.39-0.04,0.78-0.22,1.12-0.57l2.36-2.46l4.95-5.15c0.78,0.46,1.57,0.91,2.35,1.36l-2.05,7.08l-0.89,3.06
	c-0.03,0.12-0.06,0.24-0.07,0.35c-0.01,0.11-0.01,0.23-0.01,0.34c0.02,0.22,0.07,0.42,0.16,0.61c0.22,0.46,0.63,0.81,1.1,0.98
	c0.19,0.07,0.39,0.1,0.59,0.11c0.2,0,0.41-0.03,0.6-0.1c0.3-0.1,0.58-0.29,0.82-0.58l2.19-2.62l4.57-5.48
	c0.81,0.4,1.63,0.79,2.45,1.18l-1.55,7.21l-0.67,3.12c-0.42,1.96,2.14,3.1,3.31,1.47l2-2.76l4.18-5.79c0.84,0.35,1.68,0.7,2.52,1.03
	l-1.04,7.28l-0.45,3.16c-0.28,1.98,2.35,2.94,3.4,1.24l1.8-2.9l3.77-6.06c0.86,0.29,1.72,0.58,2.59,0.85l-0.53,7.33l-0.23,3.18
	c-0.14,2,2.55,2.77,3.48,1l1.59-3.01l3.33-6.3c0.88,0.23,1.76,0.44,2.64,0.65l-0.02,7.36l-0.01,3.19c0,2,2.73,2.59,3.54,0.75
	l1.38-3.12l2.89-6.53c0.89,0.16,1.78,0.31,2.68,0.46l0.5,7.35l0.22,3.18c0.14,2,2.91,2.39,3.59,0.5l1.16-3.21l2.43-6.73
	c0.9,0.1,1.79,0.21,2.7,0.29l1.01,7.3l0.44,3.16c0.27,1.98,3.07,2.18,3.61,0.25l0.93-3.28l1.96-6.9c0.9,0.04,1.8,0.08,2.7,0.1
	l1.52,7.23l0.66,3.12c0.41,1.96,3.21,1.96,3.62,0l0.7-3.34l1.48-7.03c0.45-0.01,0.9-0.01,1.35-0.03c0.45-0.02,0.9-0.04,1.35-0.06
	l2.02,7.11l0.87,3.07c0.55,1.93,3.34,1.73,3.61-0.25l0.47-3.38l0.98-7.1c0.9-0.09,1.8-0.18,2.69-0.28l2.51,6.95l1.08,3
	c0.68,1.88,3.45,1.49,3.59-0.5l0.23-3.4l0.48-7.14c0.89-0.15,1.78-0.31,2.67-0.47l2.98,6.74l1.29,2.92
	c0.81,1.83,3.55,1.25,3.54-0.75l-0.01-3.41l-0.02-7.14c0.88-0.21,1.76-0.43,2.64-0.66l3.44,6.51l1.49,2.82c0.94,1.77,3.63,1,3.48-1
	l-0.25-3.4l-0.51-7.11c0.87-0.27,1.73-0.56,2.59-0.85l3.88,6.24l1.68,2.71c1.06,1.7,3.69,0.74,3.4-1.24l-0.48-3.38l-1.01-7.05
	c0.85-0.33,1.69-0.67,2.53-1.02l4.3,5.95l1.87,2.58c1.17,1.62,3.73,0.48,3.31-1.47l-0.72-3.33l-1.5-6.97
	c0.82-0.39,1.64-0.79,2.45-1.19l4.71,5.64l2.04,2.45c1.28,1.54,3.76,0.22,3.2-1.7l-0.95-3.28l-1.98-6.86
	c0.79-0.45,1.57-0.9,2.35-1.36l5.1,5.31l2.21,2.3c1.39,1.44,3.76-0.04,3.07-1.92l-1.17-3.2l-2.46-6.71c0.75-0.5,1.5-1.01,2.25-1.52
	l5.47,4.95l2.37,2.14c1.49,1.34,3.75-0.3,2.93-2.13l-1.39-3.11l-2.93-6.53c0.72-0.55,1.43-1.11,2.13-1.67l5.81,4.56l2.51,1.97
	c1.58,1.24,3.72-0.56,2.78-2.33l-1.61-3.01l-3.38-6.32c0.68-0.6,1.35-1.2,2.01-1.81l6.11,4.14l2.64,1.79
	c1.66,1.12,3.67-0.82,2.61-2.52l-1.81-2.89l-3.82-6.08c0.63-0.64,1.26-1.29,1.88-1.94l6.4,3.71l2.76,1.6
	c1.73,1.01,3.61-1.07,2.42-2.69l-2.01-2.75l-4.23-5.8c0.59-0.68,1.16-1.38,1.74-2.07l6.64,3.26l2.86,1.4
	c1.8,0.88,3.52-1.32,2.23-2.85l-2.2-2.61l-4.62-5.48c0.54-0.72,1.06-1.46,1.59-2.19l6.85,2.78l2.95,1.2c1.86,0.75,3.42-1.57,2.03-3
	l-2.37-2.45l-4.99-5.14c0.49-0.76,0.97-1.53,1.44-2.3l7.01,2.3l3.03,0.99c1.9,0.62,3.3-1.8,1.81-3.14l-2.54-2.28l-5.33-4.78
	c0.43-0.79,0.86-1.59,1.28-2.39l7.15,1.8l3.09,0.78c1.94,0.49,3.17-2.03,1.59-3.26l-2.69-2.09l-5.64-4.39
	c0.38-0.82,0.75-1.65,1.11-2.48l7.25,1.3l3.14,0.56c1.97,0.35,3.02-2.24,1.36-3.36l-2.83-1.9l-5.93-3.98
	c0.32-0.85,0.63-1.7,0.93-2.56l7.32,0.79l3.17,0.34c1.99,0.21,2.86-2.45,1.12-3.45l-2.96-1.7l-6.19-3.55
	c0.26-0.87,0.5-1.74,0.74-2.62l7.36,0.27l3.19,0.12c2,0.07,2.68-2.64,0.88-3.52l-3.07-1.49l-6.42-3.12c0.2-0.88,0.38-1.77,0.56-2.66
	l7.36-0.24l3.19-0.1c2-0.07,2.49-2.82,0.63-3.57l-3.16-1.27l-6.64-2.66c0.13-0.89,0.26-1.79,0.38-2.69l7.33-0.75l2.88-0.3l0.3-0.03
	c0.62-0.06,1.08-0.38,1.35-0.8c0.61-0.93,0.33-2.38-0.98-2.8l-3.25-1.05l-6.82-2.2c0.07-0.9,0.13-1.8,0.19-2.7l7.27-1.26l3.14-0.55
	c0.37-0.06,0.67-0.22,0.91-0.42s0.41-0.47,0.51-0.75c0.03-0.09,0.06-0.19,0.08-0.29c0.04-0.2,0.04-0.4,0.02-0.6
	C365.02,204.85,364.97,204.66,364.88,204.48z M195.83,68.87c67.48-2.36,124.8,46.83,134.07,112.22
	c-20.77,2.99-32.18,9.81-57.46,10.69c-12.89,0.45-25.33-0.33-37.28-1.39c-4.19-15.88-18.92-27.33-36.02-26.73
	c-3.07,0.11-6.04,0.6-8.85,1.42c-5.33-10.82-11.11-21.91-17.98-32.91c-13.51-21.62-21.43-30.46-34.39-47.51
	C155.18,75.25,174.84,69.6,195.83,68.87z M132.09,311.18C95.95,289,71.25,249.72,69.66,204.17c-1.51-43.37,18.27-82.54,49.95-107.45
	c12.97,16.49,24.58,22.96,37.99,44.41c6.84,10.94,12.38,22.1,17.44,32.99c-6.84,6.81-10.95,16.34-10.58,26.75
	c0.34,9.77,4.56,18.49,11.11,24.75c-6.71,10.03-13.43,20.59-19.52,32.04C144.06,280.16,140.38,291.43,132.09,311.18z M204.96,330.34
	c-18.83,0.66-36.86-2.71-53.29-9.31c7.8-19.49,7.6-32.78,19.47-55.12c6.05-11.39,12.95-21.76,19.84-31.58
	c3.39,0.92,6.97,1.35,10.66,1.22c16.49-0.58,29.98-12.16,33.69-27.44c12.04,0.8,24.54,1.33,37.5,0.88
	c25.47-0.89,37.08-3.33,58.31-6.02C329.45,271.63,274.5,327.91,204.96,330.34z"/>
</svg>
