<?xml version="1.0" encoding="utf-8"?>
<!-- Generator: Adobe Illustrator 26.0.3, SVG Export Plug-In . SVG Version: 6.00 Build 0)  -->
<svg version="1.1" id="Layer_1" xmlns="http://www.w3.org/2000/svg" xmlns:xlink="http://www.w3.org/1999/xlink" x="0px" y="0px"
	 viewBox="0 0 200 200" style="enable-background:new 0 0 200 200;" xml:space="preserve">
<style type="text/css">
	.st0{fill:#E5E14B;stroke:#000000;stroke-miterlimit:10;}
</style>
<path class="st0" d="M171.52,101.63c-0.08-0.05-0.17-0.1-0.28-0.12l-1.45-0.36l-1.79-0.44l-1.26-0.31c0-0.4,0.01-0.79,0-1.19
	l3.14-0.78l1.36-0.34c0.85-0.21,0.81-1.44-0.06-1.59l-1.47-0.26l-3.09-0.54c-0.02-0.4-0.06-0.79-0.09-1.18l3.08-0.99l1.33-0.43
	c0.84-0.27,0.71-1.49-0.17-1.58l-1.49-0.15l-3.12-0.32c-0.05-0.39-0.11-0.78-0.17-1.18l3-1.2l1.3-0.52c0.81-0.33,0.6-1.53-0.28-1.56
	l-1.49-0.05l-3.13-0.1c-0.08-0.39-0.16-0.78-0.25-1.16l2.9-1.41l1.26-0.61c0.79-0.38,0.49-1.57-0.38-1.54l-1.49,0.06l-3.13,0.12
	c-0.11-0.38-0.21-0.77-0.33-1.15l2.79-1.6l1.21-0.7c0.76-0.44,0.38-1.6-0.49-1.51l-1.49,0.16l-3.11,0.33
	c-0.13-0.38-0.27-0.75-0.41-1.12l2.67-1.79l1.16-0.78c0.73-0.49,0.27-1.63-0.59-1.47l-1.47,0.26l-3.08,0.55
	c-0.16-0.37-0.32-0.73-0.48-1.09l2.54-1.98l1.1-0.86c0.69-0.54,0.16-1.64-0.7-1.43l-1.45,0.36l-3.03,0.76
	c-0.18-0.35-0.37-0.7-0.56-1.05l2.4-2.15l1.04-0.93c0.65-0.59,0.04-1.65-0.79-1.37l-1.42,0.47l-2.97,0.97
	c-0.21-0.34-0.42-0.67-0.63-1.01l2.25-2.32l0.97-1c0.61-0.63-0.07-1.65-0.89-1.32l-1.38,0.56l-2.9,1.18
	c-0.23-0.32-0.47-0.64-0.7-0.96l2.08-2.47l0.9-1.07c0.57-0.67-0.19-1.64-0.98-1.25l-1.34,0.66l-2.82,1.38
	c-0.25-0.31-0.51-0.61-0.77-0.91l1.91-2.61l0.82-1.13c0.52-0.71-0.3-1.62-1.06-1.18l-1.29,0.75l-2.72,1.58
	c-0.27-0.29-0.55-0.57-0.83-0.85l1.72-2.74l0.74-1.18c0.47-0.74-0.42-1.6-1.14-1.1l-1.24,0.84l-2.6,1.76
	c-0.29-0.27-0.59-0.53-0.88-0.79l1.53-2.86l0.66-1.23c0.41-0.77-0.53-1.56-1.22-1.02l-1.18,0.92l-2.47,1.94
	c-0.31-0.25-0.62-0.49-0.94-0.73l1.32-2.96l0.57-1.28c0.36-0.8-0.63-1.52-1.28-0.93l-1.11,1l-2.33,2.11
	c-0.33-0.22-0.65-0.45-0.98-0.66l1.11-3.04l0.48-1.31c0.3-0.82-0.74-1.47-1.35-0.84l-1.04,1.08l-2.17,2.26
	c-0.34-0.2-0.68-0.4-1.03-0.59l0.9-3.1l0.39-1.34c0.24-0.84-0.84-1.42-1.4-0.75l-0.96,1.15l-2.01,2.4
	c-0.35-0.18-0.71-0.35-1.07-0.52l0.68-3.15l0.29-1.37c0.18-0.86-0.94-1.36-1.45-0.65l-0.88,1.21l-1.83,2.53
	c-0.37-0.15-0.74-0.3-1.11-0.45l0.46-3.19l0.2-1.38c0.12-0.87-1.03-1.29-1.49-0.54l-0.79,1.27l-1.65,2.65
	c-0.38-0.13-0.76-0.25-1.14-0.37l0.23-3.21l0.1-1.39c0.06-0.88-1.12-1.21-1.53-0.44l-0.7,1.32l-1.46,2.76
	c-0.39-0.1-0.77-0.2-1.16-0.29l0.01-3.22l0-1.4c0-0.88-1.2-1.13-1.55-0.33l-0.6,1.37l-1.27,2.86c-0.39-0.07-0.78-0.14-1.17-0.21
	l-0.22-3.22l-0.09-1.39c-0.06-0.88-1.27-1.05-1.57-0.22l-0.51,1.41l-1.06,2.94c-0.39-0.04-0.79-0.08-1.18-0.12l-0.44-3.2l-0.19-1.38
	c-0.12-0.87-1.34-0.96-1.58-0.11l-0.41,1.44l-0.86,3.02c-0.39-0.02-0.79-0.03-1.19-0.04l-0.67-3.17l-0.29-1.37
	c-0.18-0.86-1.41-0.86-1.59,0l-0.31,1.46l-0.65,3.08c-0.2,0.01-0.39,0.01-0.59,0.01c-0.2,0.01-0.39,0.02-0.59,0.03l-0.89-3.12
	l-0.38-1.34c-0.24-0.84-1.46-0.76-1.58,0.11l-0.2,1.48l-0.43,3.11c-0.39,0.04-0.79,0.08-1.18,0.12L91,30.14l-0.47-1.31
	c-0.3-0.83-1.51-0.65-1.57,0.22l-0.1,1.49l-0.21,3.13c-0.39,0.07-0.78,0.13-1.17,0.21l-1.31-2.96l-0.57-1.28
	c-0.36-0.8-1.55-0.55-1.55,0.33l0,1.49l0.01,3.13c-0.39,0.09-0.77,0.19-1.16,0.29l-1.51-2.85l-0.65-1.24
	c-0.41-0.78-1.59-0.44-1.53,0.44l0.11,1.49l0.23,3.12c-0.38,0.12-0.76,0.24-1.13,0.37l-1.7-2.74l-0.74-1.19
	c-0.46-0.75-1.62-0.33-1.49,0.54l0.21,1.48l0.44,3.1c-0.37,0.15-0.74,0.29-1.11,0.44l-1.89-2.61l-0.82-1.13
	c-0.06-0.08-0.12-0.14-0.2-0.19c-0.13-0.09-0.27-0.14-0.41-0.14c-0.04,0-0.09,0-0.13,0c-0.09,0.01-0.17,0.03-0.25,0.07
	c-0.28,0.13-0.5,0.4-0.48,0.75c0,0.05,0.01,0.1,0.02,0.16l0.31,1.46l0.66,3.06c-0.36,0.17-0.72,0.34-1.07,0.52l-2.06-2.47l-0.9-1.07
	c-0.04-0.04-0.07-0.08-0.11-0.11c-0.5-0.42-1.28-0.06-1.32,0.56c0,0.05,0,0.1,0,0.15c0.01,0.05,0.02,0.1,0.03,0.15l0.32,1.11
	l0.09,0.32l0.87,3.01c-0.35,0.2-0.69,0.39-1.03,0.59l-2.23-2.32l-0.97-1.01c-0.19-0.2-0.42-0.27-0.64-0.25
	c-0.09,0.01-0.17,0.03-0.26,0.06c-0.08,0.03-0.16,0.08-0.22,0.14c-0.23,0.2-0.36,0.53-0.23,0.89l0.51,1.4l1.08,2.94
	c-0.33,0.22-0.65,0.45-0.98,0.67l-2.4-2.17l-1.04-0.94c-0.65-0.59-1.64,0.13-1.28,0.93l0.61,1.36l1.28,2.87
	c-0.31,0.24-0.62,0.48-0.93,0.73l-2.55-2l-1.1-0.86c-0.69-0.54-1.63,0.25-1.22,1.02l0.7,1.32l1.48,2.78
	c-0.3,0.26-0.59,0.52-0.89,0.79l-2.68-1.82l-1.16-0.78c-0.73-0.49-1.61,0.36-1.14,1.1l0.79,1.27l1.67,2.67
	c-0.28,0.28-0.55,0.56-0.82,0.85l-2.81-1.63l-1.21-0.7c-0.76-0.44-1.58,0.47-1.06,1.18l0.88,1.21l1.85,2.54
	c-0.26,0.3-0.51,0.61-0.76,0.91l-2.91-1.43l-1.25-0.62c-0.79-0.39-1.54,0.58-0.98,1.25l0.96,1.14l2.03,2.4
	c-0.24,0.32-0.46,0.64-0.69,0.96l-3-1.22l-1.29-0.53c-0.81-0.33-1.5,0.69-0.89,1.32l1.04,1.07l2.19,2.26
	c-0.21,0.33-0.43,0.67-0.63,1l-3.07-1.01l-1.33-0.43c-0.83-0.27-1.45,0.79-0.79,1.37l1.11,1l2.34,2.09
	c-0.19,0.35-0.38,0.7-0.56,1.05l-3.13-0.79l-1.36-0.34c-0.85-0.21-1.39,0.89-0.7,1.43l1.18,0.92l2.47,1.92
	c-0.16,0.36-0.33,0.72-0.48,1.09l-3.18-0.57l-1.38-0.25c-0.86-0.15-1.32,0.98-0.59,1.47l1.24,0.83l2.59,1.74
	c-0.14,0.37-0.27,0.75-0.4,1.12l-3.21-0.34l-1.39-0.15c-0.87-0.09-1.25,1.07-0.49,1.51l1.3,0.74l2.71,1.56
	c-0.11,0.38-0.22,0.76-0.33,1.15l-3.22-0.12l-1.4-0.05c-0.88-0.03-1.17,1.16-0.38,1.54l1.34,0.65l2.82,1.37
	c-0.09,0.39-0.17,0.78-0.25,1.17l-3.22,0.11l-1.4,0.05c-0.88,0.03-1.09,1.24-0.28,1.56l1.39,0.56l2.91,1.17
	c-0.06,0.39-0.12,0.78-0.17,1.18L30,91.39l-1.39,0.14c-0.87,0.09-1,1.31-0.17,1.58l1.42,0.46l2.99,0.96
	c-0.03,0.39-0.06,0.79-0.09,1.18l-3.19,0.55l-1.38,0.24c-0.86,0.15-0.91,1.38-0.06,1.59l1.45,0.36l3.05,0.75c0,0.39,0,0.79,0,1.18
	l-3.15,0.78l-1.36,0.33c-0.85,0.21-0.81,1.44,0.06,1.59l1.47,0.26l3.09,0.54c0.02,0.4,0.06,0.79,0.09,1.18l-3.08,0.99l-1.33,0.43
	c-0.84,0.27-0.71,1.49,0.17,1.58l1.49,0.15l3.12,0.32c0.05,0.39,0.1,0.79,0.16,1.18l-3,1.2l-1.3,0.52c-0.81,0.33-0.6,1.53,0.28,1.56
	l1.49,0.05l3.13,0.1c0.08,0.39,0.16,0.78,0.25,1.16l-2.91,1.41l-1.26,0.61c-0.79,0.38-0.49,1.57,0.38,1.54l1.49-0.06l3.13-0.12
	c0.11,0.38,0.21,0.77,0.32,1.15l-2.79,1.6l-1.21,0.7c-0.76,0.44-0.38,1.6,0.49,1.51l1.49-0.16l3.11-0.33
	c0.13,0.38,0.27,0.75,0.41,1.12l-2.68,1.8l-1.16,0.78c-0.73,0.49-0.27,1.63,0.59,1.47l1.47-0.26l3.08-0.55
	c0.16,0.37,0.32,0.73,0.48,1.09l-2.54,1.98l-1.1,0.86c-0.69,0.54-0.16,1.64,0.7,1.43l1.45-0.36l3.03-0.76
	c0.18,0.35,0.37,0.7,0.56,1.05l-2.4,2.15l-1.04,0.93c-0.65,0.59-0.04,1.65,0.79,1.37l1.42-0.47l2.98-0.98
	c0.21,0.34,0.41,0.68,0.63,1.01l-2.25,2.32l-0.97,1c-0.61,0.63,0.07,1.65,0.89,1.32l1.38-0.56l2.9-1.18
	c0.23,0.32,0.47,0.64,0.7,0.96l-2.08,2.47l-0.9,1.07c-0.57,0.67,0.19,1.64,0.98,1.25l1.34-0.66l2.82-1.38
	c0.25,0.3,0.5,0.61,0.76,0.91l-1.91,2.61l-0.82,1.13c-0.52,0.71,0.3,1.62,1.06,1.18l1.29-0.75l2.72-1.58
	c0.27,0.29,0.55,0.57,0.82,0.85l-1.72,2.74l-0.74,1.18c-0.47,0.74,0.42,1.6,1.14,1.1l1.24-0.84l2.6-1.76
	c0.29,0.27,0.59,0.53,0.88,0.79l-1.53,2.86l-0.66,1.23c-0.41,0.77,0.53,1.56,1.22,1.02l1.18-0.92l2.47-1.94
	c0.31,0.25,0.62,0.49,0.93,0.74l-0.66,1.47l-0.66,1.48l-0.57,1.28c-0.36,0.8,0.63,1.52,1.28,0.93l1.11-1l2.33-2.1
	c0.33,0.22,0.65,0.45,0.98,0.67l-1.11,3.03l-0.48,1.31c-0.23,0.62,0.3,1.14,0.84,1.09c0.01,0,0.01,0,0.02,0
	c0.17-0.02,0.34-0.1,0.49-0.25l1.04-1.08l2.17-2.26c0.34,0.2,0.69,0.4,1.03,0.59l-0.9,3.1l-0.39,1.34c-0.02,0.05-0.03,0.1-0.03,0.15
	c-0.01,0.05-0.01,0.1,0,0.15c0.01,0.1,0.03,0.18,0.07,0.27c0.1,0.2,0.27,0.35,0.48,0.43c0.08,0.03,0.17,0.05,0.26,0.05
	c0.09,0,0.18-0.01,0.26-0.04c0.13-0.04,0.25-0.13,0.36-0.25l0.96-1.15l2-2.4c0.35,0.18,0.72,0.35,1.07,0.52l-0.68,3.16l-0.29,1.37
	c-0.18,0.86,0.94,1.36,1.45,0.65l0.88-1.21l1.83-2.54c0.37,0.15,0.73,0.3,1.1,0.45l-0.46,3.19l-0.2,1.38
	c-0.12,0.87,1.03,1.29,1.49,0.54l0.79-1.27l1.65-2.66c0.38,0.13,0.75,0.25,1.13,0.37l-0.23,3.21l-0.1,1.39
	c-0.06,0.88,1.12,1.21,1.53,0.44l0.7-1.32l1.46-2.76c0.38,0.1,0.77,0.19,1.16,0.28l-0.01,3.23l0,1.4c0,0.88,1.2,1.13,1.55,0.33
	l0.6-1.37l1.27-2.86c0.39,0.07,0.78,0.14,1.17,0.2l0.22,3.22l0.09,1.39c0.06,0.88,1.27,1.05,1.57,0.22l0.51-1.41l1.07-2.95
	c0.39,0.04,0.79,0.09,1.18,0.13l0.44,3.2l0.19,1.38c0.12,0.87,1.34,0.96,1.58,0.11l0.41-1.44l0.86-3.02
	c0.39,0.02,0.79,0.04,1.18,0.05l0.67,3.17l0.29,1.37c0.18,0.86,1.41,0.86,1.59,0l0.31-1.46l0.65-3.08c0.2-0.01,0.39,0,0.59-0.01
	c0.2-0.01,0.39-0.02,0.59-0.03l0.89,3.12l0.38,1.34c0.24,0.84,1.46,0.76,1.58-0.11l0.2-1.48l0.43-3.11
	c0.39-0.04,0.79-0.08,1.18-0.12l1.1,3.04l0.47,1.31c0.3,0.83,1.51,0.65,1.57-0.22l0.1-1.49l0.21-3.13c0.39-0.07,0.78-0.13,1.17-0.21
	l1.31,2.95l0.57,1.28c0.36,0.8,1.55,0.55,1.55-0.33l0-1.49l-0.01-3.13c0.39-0.09,0.77-0.19,1.16-0.29l1.51,2.85l0.65,1.24
	c0.41,0.78,1.59,0.44,1.53-0.44l-0.11-1.49l-0.22-3.11c0.38-0.12,0.76-0.24,1.14-0.37l1.7,2.74l0.74,1.19
	c0.46,0.75,1.62,0.33,1.49-0.54l-0.21-1.48l-0.44-3.09c0.37-0.15,0.74-0.3,1.11-0.45l1.89,2.61l0.82,1.13
	c0.51,0.71,1.63,0.21,1.45-0.65l-0.31-1.46l-0.66-3.06c0.36-0.17,0.72-0.34,1.07-0.52l2.06,2.47l0.9,1.07
	c0.56,0.67,1.65,0.1,1.4-0.75l-0.42-1.44l-0.87-3.01c0.35-0.2,0.69-0.39,1.03-0.6l2.24,2.33l0.97,1.01
	c0.61,0.63,1.65-0.02,1.35-0.84l-0.51-1.4l-1.08-2.94c0.33-0.22,0.66-0.44,0.98-0.67l2.4,2.17l1.04,0.94
	c0.65,0.59,1.64-0.13,1.28-0.93l-0.61-1.36l-1.28-2.86c0.31-0.24,0.62-0.49,0.93-0.73l2.55,2l1.1,0.86
	c0.69,0.54,1.63-0.25,1.22-1.02l-0.7-1.32l-1.48-2.77c0.3-0.26,0.59-0.53,0.88-0.79l2.68,1.82l1.16,0.78
	c0.73,0.49,1.61-0.36,1.14-1.1l-0.79-1.27l-1.67-2.66c0.28-0.28,0.55-0.56,0.82-0.85l2.8,1.63l1.21,0.7
	c0.76,0.44,1.58-0.47,1.06-1.18l-0.88-1.21l-1.85-2.54c0.26-0.3,0.51-0.6,0.76-0.91l2.91,1.43l1.25,0.62
	c0.79,0.39,1.54-0.58,0.98-1.25l-0.96-1.14l-2.02-2.4c0.24-0.32,0.47-0.64,0.7-0.96l3,1.22l1.29,0.53c0.81,0.33,1.5-0.69,0.89-1.32
	l-1.04-1.07l-2.19-2.25c0.21-0.33,0.42-0.67,0.63-1.01l3.07,1.01l1.33,0.43c0.83,0.27,1.45-0.79,0.79-1.37l-1.11-1l-2.34-2.09
	c0.19-0.35,0.38-0.7,0.56-1.05l3.13,0.79l1.36,0.34c0.85,0.21,1.39-0.89,0.7-1.43l-1.18-0.92l-2.47-1.92
	c0.16-0.36,0.33-0.72,0.49-1.09l3.18,0.57l1.38,0.25c0.86,0.15,1.32-0.98,0.59-1.47l-1.24-0.83l-2.6-1.74
	c0.14-0.37,0.27-0.75,0.41-1.12l3.21,0.34l1.39,0.15c0.87,0.09,1.25-1.07,0.49-1.51l-1.3-0.74l-2.71-1.56
	c0.11-0.38,0.22-0.76,0.33-1.15l3.22,0.12l1.4,0.05c0.88,0.03,1.17-1.16,0.38-1.54l-1.34-0.65l-2.82-1.37
	c0.09-0.39,0.17-0.78,0.25-1.17l3.23-0.11l1.4-0.05c0.88-0.03,1.09-1.24,0.28-1.56l-1.39-0.56l-2.91-1.17
	c0.06-0.39,0.12-0.78,0.17-1.18l3.21-0.33l1.26-0.13l0.13-0.01c0.27-0.03,0.47-0.17,0.59-0.35c0.27-0.41,0.15-1.04-0.43-1.23
	l-1.42-0.46l-2.99-0.96c0.03-0.39,0.06-0.79,0.08-1.18l3.19-0.55l1.38-0.24c0.16-0.03,0.3-0.09,0.4-0.18
	c0.1-0.09,0.18-0.2,0.22-0.33c0.01-0.04,0.03-0.08,0.03-0.13c0.02-0.09,0.02-0.18,0.01-0.26c-0.01-0.09-0.03-0.17-0.07-0.25
	C171.72,101.82,171.63,101.71,171.52,101.63z M97.7,42.51c29.57-1.03,54.69,20.52,58.75,49.18c-9.1,1.31-14.1,4.3-25.18,4.69
	c-1.82,0.06-3.61,0.06-5.39,0.02c-1.67-12.97-12.75-23-26.18-23c-3.32,0-6.5,0.62-9.43,1.74c-0.92-1.63-1.86-3.26-2.88-4.89
	c-5.92-9.48-9.39-13.35-15.07-20.82C79.88,45.31,88.5,42.83,97.7,42.51z M69.76,148.69c-15.84-9.72-26.66-26.93-27.36-46.89
	c-0.66-19.01,8-36.17,21.89-47.09c5.68,7.23,10.77,10.06,16.65,19.46c0.97,1.54,1.85,3.1,2.71,4.66
	c-6.3,4.83-10.37,12.42-10.37,20.97c0,8.27,3.81,15.66,9.76,20.5c-0.95,1.61-1.89,3.25-2.79,4.94
	C75.01,135.1,73.4,140.04,69.76,148.69z M101.7,157.09c-8.25,0.29-16.15-1.19-23.35-4.08c3.42-8.54,3.33-14.37,8.53-24.16
	c0.85-1.61,1.75-3.15,2.67-4.67c3.12,1.3,6.55,2.02,10.15,2.02c13.17,0,24.08-9.64,26.08-22.24c1.87,0.02,3.76,0.02,5.67-0.05
	c11.16-0.39,16.25-1.46,25.55-2.64C156.25,131.36,132.17,156.03,101.7,157.09z"/>
</svg>
