<?xml version="1.0" encoding="utf-8"?>
<!-- Generator: Adobe Illustrator 26.0.3, SVG Export Plug-In . SVG Version: 6.00 Build 0)  -->
<svg version="1.1" id="Layer_1" xmlns="http://www.w3.org/2000/svg" xmlns:xlink="http://www.w3.org/1999/xlink" x="0px" y="0px"
	 viewBox="0 0 400 400" style="enable-background:new 0 0 400 400;" xml:space="preserve">
<style type="text/css">
	.st0{fill:#E5E14B;stroke:#009444;stroke-miterlimit:10;}
</style>
<path class="st0" d="M312.72,202.84l4.14-0.76c2.6-0.47,2.6-3.7,0-4.17l-4.43-0.81l-8.53-1.56c-0.03-0.66-0.06-1.32-0.1-1.98
	l8.6-2.52l4.04-1.18c2.54-0.74,2.2-3.95-0.44-4.15l-4.49-0.34l-8.63-0.65c-0.1-0.66-0.21-1.31-0.32-1.97l8.28-3.4l3.9-1.6
	c2.45-1.01,1.78-4.16-0.87-4.08l-4.5,0.13l-8.65,0.25c-0.17-0.64-0.33-1.29-0.51-1.93l7.87-4.24l3.71-2
	c2.33-1.26,1.33-4.32-1.29-3.97l-4.46,0.6l-8.58,1.16c-0.23-0.62-0.47-1.24-0.71-1.86l7.39-5.05l3.48-2.38
	c2.18-1.49,0.87-4.44-1.7-3.81l-4.38,1.06l-8.42,2.05c-0.3-0.59-0.6-1.18-0.91-1.77l6.83-5.8l3.21-2.73
	c2.02-1.71,0.4-4.51-2.09-3.62l-4.24,1.52l-8.17,2.92c-0.36-0.56-0.71-1.11-1.08-1.66l6.19-6.49l2.91-3.05
	c1.83-1.91-0.07-4.52-2.45-3.38l-4.06,1.95l-7.83,3.76c-0.41-0.52-0.83-1.03-1.25-1.54l5.48-7.11l2.57-3.33
	c1.62-2.09-0.54-4.49-2.79-3.1l-3.83,2.36l-7.38,4.55c-0.46-0.47-0.93-0.94-1.4-1.4l4.71-7.63l2.21-3.59
	c1.39-2.25-1.01-4.41-3.1-2.79l-3.56,2.75l-6.87,5.3c-0.51-0.42-1.02-0.84-1.54-1.25l3.88-8.07l1.82-3.8
	c1.15-2.38-1.46-4.28-3.38-2.45l-3.26,3.11l-6.27,5.98c-0.55-0.37-1.11-0.73-1.67-1.08l3.01-8.43l1.42-3.97
	c0.89-2.49-1.9-4.1-3.62-2.09l-2.91,3.43l-5.6,6.59c-0.59-0.31-1.18-0.61-1.78-0.9l2.11-8.69l0.99-4.09
	c0.62-2.57-2.32-3.88-3.81-1.7l-2.54,3.72l-4.88,7.15c-0.62-0.24-1.24-0.49-1.86-0.72l1.19-8.86l0.56-4.17
	c0.35-2.62-2.71-3.62-3.97-1.29l-2.14,3.96l-4.11,7.63c-0.64-0.18-1.28-0.35-1.92-0.51l0.26-8.96l0.12-4.21
	c0.08-2.64-3.08-3.32-4.08-0.87l-1.71,4.17l-3.3,8.03c-0.65-0.11-1.3-0.21-1.96-0.31l-0.68-8.95l-0.32-4.2
	c-0.2-2.64-3.41-2.98-4.15-0.44l-1.27,4.32l-2.44,8.33c-0.66-0.04-1.32-0.08-1.98-0.1l-1.61-8.83l-0.76-4.14
	c-0.47-2.6-3.7-2.6-4.17,0l-0.81,4.43l-1.56,8.53c-0.66,0.03-1.32,0.06-1.98,0.1l-2.52-8.6l-1.18-4.04
	c-0.74-2.54-3.95-2.2-4.15,0.44l-0.34,4.49l-0.65,8.63c-0.66,0.1-1.31,0.21-1.97,0.32l-3.4-8.28l-1.6-3.9
	c-1.01-2.45-4.16-1.78-4.08,0.87l0.13,4.5l0.25,8.65c-0.64,0.17-1.29,0.33-1.93,0.51l-4.24-7.87l-2-3.71
	c-1.26-2.33-4.32-1.33-3.97,1.29l0.6,4.46l1.16,8.58c-0.62,0.23-1.24,0.47-1.86,0.71l-5.05-7.39l-2.38-3.48
	c-1.49-2.18-4.44-0.87-3.81,1.7l1.06,4.38l2.05,8.42c-0.59,0.3-1.18,0.6-1.77,0.91l-5.8-6.83l-2.73-3.21
	c-1.71-2.02-4.51-0.4-3.62,2.09l1.52,4.24l2.92,8.17c-0.56,0.36-1.11,0.71-1.66,1.08l-6.49-6.19l-3.05-2.91
	c-1.91-1.83-4.52,0.07-3.38,2.45l1.95,4.06l3.76,7.83c-0.52,0.41-1.03,0.83-1.54,1.25l-7.11-5.48l-3.33-2.57
	c-2.09-1.62-4.49,0.54-3.1,2.79l2.36,3.83l4.55,7.38c-0.47,0.46-0.94,0.93-1.4,1.4l-7.63-4.71l-3.59-2.21
	c-2.25-1.39-4.41,1.01-2.79,3.1l2.75,3.56l5.3,6.87c-0.42,0.51-0.84,1.02-1.25,1.54l-8.07-3.88l-3.8-1.82
	c-2.38-1.15-4.28,1.46-2.45,3.38l3.11,3.26l5.98,6.27c-0.37,0.55-0.73,1.11-1.08,1.67l-8.43-3.01l-3.97-1.42
	c-2.49-0.89-4.1,1.9-2.09,3.62l3.43,2.91l6.59,5.6c-0.31,0.59-0.61,1.18-0.9,1.78l-8.69-2.11l-4.09-0.99
	c-2.57-0.62-3.88,2.32-1.7,3.81l3.72,2.54l7.15,4.88c-0.24,0.62-0.49,1.24-0.72,1.86l-8.86-1.19l-4.17-0.56
	c-2.62-0.35-3.62,2.71-1.29,3.97l3.96,2.14l7.63,4.11c-0.18,0.64-0.35,1.28-0.51,1.92l-8.96-0.26l-4.21-0.12
	c-2.64-0.08-3.32,3.08-0.87,4.08l4.17,1.71l8.03,3.3c-0.11,0.65-0.21,1.3-0.31,1.96l-8.95,0.68l-4.2,0.32
	c-2.64,0.2-2.98,3.41-0.44,4.15l4.32,1.27l8.33,2.44c-0.04,0.66-0.08,1.32-0.1,1.98l-8.83,1.61l-4.14,0.76c-2.6,0.47-2.6,3.7,0,4.17
	l4.43,0.81l8.53,1.56c0.03,0.66,0.06,1.32,0.1,1.98l-8.6,2.52l-4.04,1.18c-2.54,0.74-2.2,3.95,0.44,4.15l4.49,0.34l8.63,0.65
	c0.1,0.66,0.21,1.31,0.32,1.97l-8.28,3.4l-3.9,1.6c-2.45,1.01-1.78,4.16,0.87,4.08l4.5-0.13l8.65-0.25
	c0.17,0.64,0.33,1.29,0.51,1.93l-7.87,4.24l-3.71,2c-2.33,1.26-1.33,4.32,1.29,3.97l4.46-0.6l8.58-1.16
	c0.23,0.62,0.47,1.24,0.71,1.86l-7.39,5.05l-3.48,2.38c-2.18,1.49-0.87,4.44,1.7,3.81l4.38-1.06l8.42-2.05
	c0.3,0.59,0.6,1.18,0.91,1.77l-6.83,5.8l-3.21,2.73c-2.02,1.71-0.4,4.51,2.09,3.62l4.24-1.52l8.17-2.92
	c0.36,0.56,0.71,1.11,1.08,1.66l-6.19,6.49l-2.91,3.05c-1.83,1.91,0.07,4.52,2.45,3.38l4.06-1.95l7.83-3.76
	c0.41,0.52,0.83,1.03,1.25,1.54l-5.48,7.11l-2.57,3.33c-1.62,2.09,0.54,4.49,2.79,3.1l3.83-2.36l7.38-4.55
	c0.46,0.47,0.93,0.94,1.4,1.4l-4.71,7.63l-2.21,3.59c-1.39,2.25,1.01,4.41,3.1,2.79l3.56-2.75l6.87-5.3
	c0.51,0.42,1.02,0.84,1.54,1.25l-3.88,8.07l-1.82,3.8c-1.15,2.38,1.46,4.28,3.38,2.45l3.26-3.11l6.27-5.98
	c0.55,0.37,1.11,0.73,1.67,1.08l-3.01,8.43l-1.42,3.97c-0.89,2.49,1.9,4.1,3.62,2.09l2.91-3.43l5.6-6.59
	c0.59,0.31,1.18,0.6,1.78,0.9l-2.11,8.69l-0.99,4.09c-0.62,2.57,2.32,3.88,3.81,1.7l2.54-3.72l4.88-7.15
	c0.62,0.24,1.24,0.49,1.86,0.72l-1.19,8.86l-0.56,4.17c-0.35,2.62,2.71,3.62,3.97,1.29l2.14-3.96l4.11-7.63
	c0.64,0.18,1.28,0.35,1.92,0.51l-0.26,8.96l-0.12,4.21c-0.08,2.64,3.08,3.32,4.08,0.87l1.71-4.17l3.3-8.03
	c0.65,0.11,1.3,0.21,1.96,0.31l0.68,8.95l0.32,4.2c0.2,2.64,3.41,2.98,4.15,0.44l1.27-4.32l2.44-8.33c0.66,0.04,1.32,0.08,1.98,0.1
	l1.61,8.83l0.76,4.14c0.47,2.6,3.7,2.6,4.17,0l0.81-4.43l1.56-8.53c0.66-0.03,1.32-0.06,1.98-0.1l2.52,8.6l1.18,4.04
	c0.74,2.54,3.95,2.2,4.15-0.44l0.34-4.49l0.65-8.63c0.66-0.1,1.31-0.21,1.97-0.32l3.4,8.28l1.6,3.9c1.01,2.45,4.16,1.78,4.08-0.87
	l-0.13-4.5l-0.25-8.65c0.64-0.17,1.29-0.33,1.93-0.51l4.24,7.87l2,3.71c1.26,2.33,4.32,1.33,3.97-1.29l-0.6-4.46l-1.16-8.58
	c0.62-0.23,1.24-0.47,1.86-0.71l5.05,7.39l2.38,3.48c1.49,2.18,4.44,0.87,3.81-1.7l-1.06-4.38l-2.05-8.42
	c0.59-0.3,1.18-0.6,1.77-0.91l5.8,6.83l2.73,3.21c1.71,2.02,4.51,0.4,3.62-2.09l-1.52-4.24l-2.92-8.17
	c0.56-0.36,1.11-0.71,1.66-1.08l6.49,6.19l3.05,2.91c1.91,1.83,4.52-0.07,3.38-2.45l-1.95-4.06l-3.76-7.83
	c0.52-0.41,1.03-0.83,1.54-1.25l7.11,5.48l3.33,2.57c2.09,1.62,4.49-0.54,3.1-2.79l-2.36-3.83l-4.55-7.38
	c0.47-0.46,0.94-0.93,1.4-1.4l7.63,4.71l3.59,2.21c2.25,1.39,4.41-1.01,2.79-3.1l-2.75-3.56l-5.3-6.87
	c0.42-0.51,0.84-1.02,1.25-1.54l8.07,3.88l3.8,1.82c2.38,1.15,4.28-1.46,2.45-3.38l-3.11-3.26l-5.98-6.27
	c0.37-0.55,0.73-1.11,1.08-1.67l8.43,3.01l3.97,1.42c2.49,0.89,4.1-1.9,2.09-3.62l-3.43-2.91l-6.59-5.6c0.31-0.59,0.6-1.18,0.9-1.78
	l8.69,2.11l4.09,0.99c2.57,0.62,3.88-2.32,1.7-3.81l-3.72-2.54l-7.15-4.88c0.24-0.62,0.49-1.24,0.72-1.86l8.86,1.19l4.17,0.56
	c2.62,0.35,3.62-2.71,1.29-3.97l-3.96-2.14l-7.63-4.11c0.18-0.64,0.35-1.28,0.51-1.92l8.96,0.26l4.21,0.12
	c2.64,0.08,3.32-3.08,0.87-4.08l-4.17-1.71l-8.03-3.3c0.11-0.65,0.21-1.3,0.31-1.96l8.95-0.68l4.2-0.32
	c2.64-0.2,2.98-3.41,0.44-4.15l-4.32-1.27l-8.33-2.44c0.04-0.66,0.08-1.32,0.1-1.98L312.72,202.84z M200,233.08
	c-18.27,0-33.08-14.81-33.08-33.08c0-18.27,14.81-33.08,33.08-33.08s33.08,14.81,33.08,33.08
	C233.08,218.27,218.27,233.08,200,233.08z"/>
</svg>
