<?xml version="1.0" encoding="utf-8"?>
<!-- Generator: Adobe Illustrator 26.0.3, SVG Export Plug-In . SVG Version: 6.00 Build 0)  -->
<svg version="1.1" id="Layer_1" xmlns="http://www.w3.org/2000/svg" xmlns:xlink="http://www.w3.org/1999/xlink" x="0px" y="0px"
	 viewBox="0 0 300 300" style="enable-background:new 0 0 300 300;" xml:space="preserve">
<style type="text/css">
	.st0{fill:#E5E14B;stroke:#000000;stroke-miterlimit:10;}
</style>
<path class="st0" d="M253.98,77.93l3.49-6.63l-7.39,1.27l3.14-6.81l-7.31,1.65l2.78-6.96l-7.21,2.03l2.41-7.1l-7.1,2.41l2.03-7.21
	l-6.96,2.78l1.65-7.31l-6.81,3.14l1.27-7.39l0,0l0,0l-6.63,3.49l0.88-7.44l-6.44,3.83l0.49-7.48l-6.23,4.16l0.1-7.49l-6.01,4.48
	l-0.3-7.49l-5.76,4.79l-0.69-7.46l-5.51,5.09l-1.08-7.42l-5.23,5.37l-1.46-7.35l-4.94,5.63l-1.85-7.26l-4.64,5.88l-2.22-7.16
	l-4.33,6.12l-2.6-7.03l-4,6.34l-2.96-6.89l-3.66,6.54l-3.32-6.72l-3.32,6.72l-3.66-6.54l-2.96,6.89l-4-6.34l-2.6,7.03l-4.33-6.12
	l-2.22,7.16l-4.64-5.88l-1.85,7.26l-4.94-5.63l-1.46,7.35l-5.23-5.37l-1.08,7.42l-5.51-5.09l-0.69,7.46l-5.76-4.79l-0.3,7.49
	l-6.01-4.48l0.1,7.49l-6.23-4.16l0.49,7.48l-6.44-3.83l0.88,7.44l-6.63-3.49l0,0l0,0l1.27,7.39l-6.81-3.14l1.65,7.31l-6.96-2.78
	l2.03,7.21l-7.1-2.41l2.41,7.1l-7.21-2.03l2.78,6.96l-7.31-1.65l3.14,6.81l-7.39-1.27l3.49,6.63l-7.44-0.88l3.83,6.44L34.01,83
	l4.16,6.23l-7.49-0.1l4.48,6.01l-7.49,0.3l4.79,5.76L25,101.9l5.09,5.51l-7.42,1.08l5.37,5.23l-7.35,1.46l5.63,4.94l-7.26,1.85
	l5.88,4.64l-7.16,2.22l6.12,4.33l-7.03,2.6l6.34,4l-6.89,2.96l6.54,3.66l-6.72,3.32l6.72,3.32l-6.54,3.66l6.89,2.96l-6.34,4
	l7.03,2.6l-6.12,4.33l7.16,2.22l-5.88,4.64l7.26,1.85l-5.63,4.94l7.35,1.46l-5.37,5.23l7.42,1.08L25,197.51l7.46,0.69l-4.79,5.76
	l7.49,0.3l-4.48,6.01l7.49-0.1l-4.16,6.23l7.48-0.49l-3.83,6.44l7.44-0.88l-3.49,6.63l7.39-1.27l-3.14,6.81l7.31-1.65l-2.78,6.96
	l7.21-2.03l-2.41,7.1l7.1-2.41l-2.03,7.21l6.96-2.78l-1.65,7.31l6.81-3.14l-1.27,7.39l6.63-3.49l-0.88,7.44l6.44-3.83l-0.49,7.48
	l6.23-4.16l-0.1,7.49l6.01-4.48l0.3,7.49l5.76-4.79l0.69,7.46l5.51-5.09l1.08,7.42l5.23-5.37l1.46,7.35l4.94-5.63l1.85,7.26
	l4.64-5.88l2.22,7.16l4.33-6.12l2.6,7.03l4-6.34l2.96,6.89l3.66-6.54l3.32,6.72l0,0l0,0l3.32-6.72l3.66,6.54l2.96-6.89l4,6.34
	l2.6-7.03l4.33,6.12l2.23-7.16l4.64,5.88l1.85-7.26l4.94,5.63l1.46-7.35l5.23,5.37l1.08-7.42l5.51,5.09l0.69-7.46l5.76,4.79
	l0.3-7.49l6.01,4.48l-0.1-7.49l6.23,4.16l-0.49-7.48l6.44,3.83l-0.88-7.44l6.63,3.49l-1.27-7.39l6.81,3.14l-1.65-7.31l6.96,2.78
	l-2.03-7.21l7.1,2.41l-2.41-7.1l7.21,2.03l-2.78-6.96l7.31,1.65l-3.14-6.81l7.39,1.27l-3.49-6.63l7.44,0.88l-3.83-6.44l7.48,0.49
	l-4.16-6.23l7.49,0.1l-4.48-6.01l7.49-0.3l-4.79-5.76l7.46-0.69L269,192l7.42-1.08l0,0l0,0l-5.37-5.23l7.35-1.46l-5.63-4.94
	l7.26-1.85l-5.88-4.64l7.16-2.22l-6.12-4.33l7.03-2.6l-6.34-4l6.89-2.96l-6.54-3.66l6.72-3.32l-6.72-3.32l6.54-3.66l-6.89-2.96
	l6.34-4l-7.03-2.6l6.12-4.33l-7.16-2.22l5.88-4.64l-7.26-1.85l5.63-4.94l-7.35-1.46l5.37-5.23L269,107.4l5.09-5.51l-7.46-0.69
	l4.79-5.76l-7.49-0.3l4.48-6.01l-7.49,0.1l4.16-6.23l-7.48,0.49l3.83-6.44L253.98,77.93z M176.5,120.9l37.54-51.67
	c32.83,26.27,45.57,68.99,35.01,107.68l-60.75-19.74C190.8,144.13,186.59,130.31,176.5,120.9z M206.15,63.49l-37.54,51.67
	c-12.08-6.68-26.51-6.42-38.14-0.01L92.92,63.47C126.45,41.47,171.03,40.39,206.15,63.49z M143.09,140.82
	c4.9-3.56,11.77-2.48,15.33,2.43c3.56,4.9,2.48,11.77-2.43,15.33c-4.9,3.56-11.77,2.48-15.33-2.43
	C137.1,151.25,138.19,144.39,143.09,140.82z M66.1,89.08c5.53-7.62,11.92-14.25,18.93-19.87l37.55,51.68
	c-1.79,1.68-3.46,3.55-4.96,5.62c-6.68,9.2-8.81,20.31-6.82,30.65L50.06,176.9C42.12,147.76,46.97,115.41,66.1,89.08z M88.92,233.14
	c-16.92-12.29-28.99-28.76-35.85-46.96l60.74-19.74c2.74,5.85,6.94,11.12,12.54,15.18c5.6,4.07,11.9,6.44,18.32,7.23l0,63.87
	C125.23,251.83,105.84,245.43,88.92,233.14z M232.98,210.32c-19.13,26.33-48.4,40.95-78.56,42.4l0-63.87
	c10.45-1.3,20.37-6.76,27.05-15.95c1.5-2.06,2.76-4.23,3.81-6.46l60.76,19.74C242.85,194.58,238.52,202.71,232.98,210.32z"/>
</svg>
