<?xml version="1.0" encoding="utf-8"?>
<!-- Generator: Adobe Illustrator 26.0.3, SVG Export Plug-In . SVG Version: 6.00 Build 0)  -->
<svg version="1.1" id="Layer_1" xmlns="http://www.w3.org/2000/svg" xmlns:xlink="http://www.w3.org/1999/xlink" x="0px" y="0px"
	 viewBox="0 0 300 300" style="enable-background:new 0 0 300 300;" xml:space="preserve">
<style type="text/css">
	.st0{fill:#E5E14B;stroke:#000000;stroke-miterlimit:10;}
</style>
<path class="st0" d="M254.71,154.68l5.64-2.64l-5.52-2.87l5.5-2.93l-5.67-2.58l5.33-3.21l-5.79-2.28l5.16-3.49l-5.91-1.97l4.97-3.75
	l-6-1.66l4.77-4.01l-6.08-1.35l4.55-4.25h0l0,0l-6.14-1.03l4.32-4.48l-6.19-0.7l4.08-4.7l-6.22-0.38l3.83-4.91l-6.23-0.05l3.57-5.1
	l-6.22,0.27l3.29-5.28l-6.2,0.6l3.01-5.45l-6.16,0.92l2.72-5.6l-6.1,1.24l2.43-5.73l-6.03,1.56l2.12-5.85l-5.94,1.87l1.81-5.96
	l-5.83,2.18l1.5-6.04l-5.71,2.49l1.18-6.11L211,64.22l0.86-6.17l-5.42,3.07l0.54-6.2l-5.25,3.35l0.21-6.22l-5.07,3.62l-0.11-6.23
	l-4.87,3.88l-0.44-6.21l-4.66,4.13l-0.77-6.18l-4.44,4.37l-1.09-6.13l-4.21,4.59l-1.41-6.07l-3.96,4.81l-1.72-5.98l-3.7,5.01
	l-2.03-5.89l-3.44,5.19l-2.34-5.77l-3.16,5.37l-2.64-5.64v0l0,0l-2.87,5.52l-2.93-5.5l-2.58,5.67l-3.21-5.33l-2.28,5.79l-3.49-5.16
	l-1.97,5.91l-3.75-4.97l-1.66,6l-4.01-4.77l-1.35,6.08l-4.25-4.55l-1.03,6.14l-4.48-4.32l-0.7,6.19l-4.7-4.08l-0.38,6.22l-4.91-3.83
	l-0.05,6.23l-5.1-3.57l0.27,6.22l-5.28-3.29l0.6,6.2l-5.45-3.01l0.92,6.16l-5.6-2.72l1.24,6.1l-5.73-2.43l1.56,6.03l-5.85-2.12
	l1.87,5.94l-5.96-1.81l2.18,5.83l-6.04-1.5l2.49,5.71l-6.11-1.18l2.78,5.57l-6.17-0.86l3.07,5.42l-6.2-0.54l3.35,5.25l-6.22-0.21
	l3.62,5.07l-6.23,0.11l3.88,4.87l-6.21,0.44l4.13,4.66l-6.18,0.77l4.37,4.44l-6.13,1.09l4.59,4.21l-6.07,1.41l4.81,3.96l-5.98,1.72
	l5.01,3.7l-5.89,2.03l5.19,3.44l-5.77,2.34l5.37,3.16l-5.64,2.64l5.52,2.87l-5.5,2.93l5.67,2.58l-5.33,3.21l5.79,2.28l-5.16,3.49
	l5.91,1.97l-4.97,3.75l6,1.66l-4.77,4.01l6.08,1.35l-4.55,4.25l6.14,1.03l-4.32,4.48l6.19,0.7l-4.08,4.7l6.22,0.38l-3.83,4.91
	l6.23,0.05l-3.57,5.1l6.22-0.27l-3.29,5.28l6.2-0.6l-3.01,5.45l6.16-0.92l-2.72,5.6l6.1-1.24l-2.43,5.73l6.03-1.56l-2.12,5.85
	l5.94-1.87l-1.81,5.96l5.83-2.18l-1.5,6.04l5.71-2.49l-1.18,6.11l0,0v0l5.57-2.78l-0.86,6.17l5.42-3.07l-0.54,6.2l5.25-3.35
	l-0.21,6.22l5.07-3.62l0.11,6.23l4.87-3.88l0.44,6.21l4.66-4.13l0.77,6.18l4.44-4.37l1.09,6.13l4.21-4.59l1.41,6.07l3.96-4.81
	l1.72,5.98l3.7-5.01l2.03,5.89l3.44-5.19l2.34,5.77l3.16-5.37l2.64,5.64l2.87-5.52l2.93,5.5l2.58-5.67l3.21,5.33l2.28-5.79
	l3.49,5.16l1.97-5.91l3.75,4.97l1.66-6l4.01,4.77l1.35-6.08l4.25,4.55l1.03-6.14l4.48,4.32l0.7-6.19l4.7,4.08l0.38-6.22l4.91,3.83
	l0.05-6.23l5.1,3.57l-0.27-6.22l5.28,3.29l-0.6-6.2l5.45,3.01v0l0,0l-0.92-6.16l5.6,2.72l-1.24-6.1l5.73,2.43l-1.56-6.03l5.85,2.12
	l-1.87-5.94l5.96,1.81l-2.18-5.83l6.04,1.5l-2.49-5.71l6.11,1.18l-2.78-5.57l6.17,0.86l-3.07-5.42l6.2,0.54l-3.35-5.25l6.22,0.21
	l-3.62-5.07l6.23-0.11l-3.88-4.87l6.21-0.44l-4.13-4.66l6.18-0.77l-4.37-4.44l6.13-1.09l-4.59-4.21l6.07-1.41l-4.81-3.96l5.98-1.72
	l-5.01-3.7l5.89-2.03l-5.19-3.44l5.77-2.34L254.71,154.68z M181.85,144.19l50.8-15.33c8.52,33.87-4.51,68.55-30.94,88.83
	l-30.28-43.59C179.64,166.74,183.8,155.49,181.85,144.19z M230.31,121.1l-50.8,15.33c-4.63-10.49-14.32-17.56-25.23-19.17
	l1.12-53.06C188.65,66.49,218.68,88.17,230.31,121.1z M149.74,140.59c5.03,0.11,9.03,4.27,8.92,9.31c-0.11,5.03-4.27,9.03-9.31,8.92
	c-5.03-0.11-9.03-4.27-8.92-9.31C140.53,144.48,144.7,140.48,149.74,140.59z M124.79,67.67c7.49-2.26,15.05-3.44,22.51-3.64
	l-1.12,53.06c-2.03,0.21-4.08,0.61-6.11,1.22c-9.04,2.73-16.03,9.01-19.91,16.86l-50.11-17.46C79.44,94.44,98.9,75.48,124.79,67.67z
	 M67.51,174.45c-5.02-16.63-4.73-33.6-0.13-49.09l50.1,17.46c-1.13,5.25-0.99,10.85,0.67,16.35c1.66,5.5,4.64,10.24,8.48,13.99
	l-32.09,42.26C82.15,205.06,72.53,191.08,67.51,174.45z M174.29,231.74c-25.89,7.81-52.59,2.78-73.28-11.42l32.09-42.26
	c7.57,4.39,16.87,5.76,25.91,3.03c2.03-0.61,3.95-1.41,5.76-2.36l30.28,43.59C188.73,226.28,181.78,229.48,174.29,231.74z"/>
</svg>
