<?xml version="1.0" encoding="utf-8"?>
<!-- Generator: Adobe Illustrator 26.0.3, SVG Export Plug-In . SVG Version: 6.00 Build 0)  -->
<svg version="1.1" id="Layer_1" xmlns="http://www.w3.org/2000/svg" xmlns:xlink="http://www.w3.org/1999/xlink" x="0px" y="0px"
	 viewBox="0 0 350 350" style="enable-background:new 0 0 350 350;" xml:space="preserve">
<style type="text/css">
	.st0{fill:#E5E14B;stroke:#000000;stroke-miterlimit:10;}
</style>
<g>
	<path class="st0" d="M40.08,253.14c43.13,74.7,138.64,100.29,213.33,57.16S353.7,171.67,310.57,96.97S171.93-3.32,97.24,39.81
		S-3.05,178.45,40.08,253.14z M100.41,45.29c15.61-9.01,32.18-14.89,48.96-17.81l20.27,106.61c-5.14,0.71-10.23,2.4-15,5.15
		c-18.11,10.45-25.31,32.54-17.63,51.37L35.03,226.18C10.22,159.23,36.5,82.19,100.41,45.29z M193.16,205.95
		c-17.06,9.85-38.88,4.01-48.73-13.06c-9.85-17.06-4.01-38.88,13.06-48.73c17.06-9.85,38.88-4.01,48.73,13.06
		C216.07,174.28,210.23,196.1,193.16,205.95z M315.03,225.98l-101.4-35.37c4.62-11.41,4.14-24.75-2.49-36.23
		c-6.63-11.49-17.94-18.58-30.13-20.27l20.25-106.47c41.77,7.49,80.08,32.64,102.96,72.26
		C327.24,139.79,329.75,185.88,315.03,225.98z M61.06,270.85l81.63-70.4c12.47,16.06,35.19,20.87,53.3,10.42
		c4.77-2.75,8.77-6.32,11.96-10.41l81.27,70.08c-10.87,12.94-24.15,24.23-39.63,33.17C186.07,340.39,106.77,325.03,61.06,270.85z"/>
</g>
</svg>
