<?xml version="1.0" encoding="utf-8"?>
<!-- Generator: Adobe Illustrator 26.0.3, SVG Export Plug-In . SVG Version: 6.00 Build 0)  -->
<svg version="1.1" id="Layer_1" xmlns="http://www.w3.org/2000/svg" xmlns:xlink="http://www.w3.org/1999/xlink" x="0px" y="0px"
	 viewBox="0 0 350 350" style="enable-background:new 0 0 350 350;" xml:space="preserve">
<style type="text/css">
	.st0{fill:none;stroke:#58595B;stroke-width:3;stroke-miterlimit:10;}
</style>
<g>
	<path class="st0" d="M69.6,181.08c0-55.23,44.77-100,100-100c49.71,0,90,40.29,90,90c0,44.74-36.26,81-81,81
		c-40.26,0-72.9-32.64-72.9-72.9c0-36.24,29.37-65.61,65.61-65.61c32.61,0,59.05,26.44,59.05,59.05c0,29.35-23.79,53.14-53.14,53.14
		c-26.42,0-47.83-21.41-47.83-47.83c0-23.77,19.27-43.05,43.05-43.05c21.4,0,38.74,17.35,38.74,38.74
		c0,19.26-15.61,34.87-34.87,34.87c-17.33,0-31.38-14.05-31.38-31.38c0-15.6,12.64-28.24,28.24-28.24
		c14.04,0,25.42,11.38,25.42,25.42c0,12.63-10.24,22.88-22.88,22.88c-11.37,0-20.59-9.22-20.59-20.59c0-10.23,8.3-18.53,18.53-18.53
		c9.21,0,16.68,7.47,16.68,16.68c0,8.29-6.72,15.01-15.01,15.01c-7.46,0-13.51-6.05-13.51-13.51c0-6.71,5.44-12.16,12.16-12.16
		c6.04,0,10.94,4.9,10.94,10.94c0,5.44-4.41,9.85-9.85,9.85c-4.89,0-8.86-3.97-8.86-8.86c0-4.41,3.57-7.98,7.98-7.98
		c3.96,0,7.18,3.21,7.18,7.18c0,3.57-2.89,6.46-6.46,6.46c-3.21,0-5.81-2.6-5.81-5.81c0-2.89,2.34-5.23,5.23-5.23
		c2.6,0,4.71,2.11,4.71,4.71c0,2.34-1.9,4.24-4.24,4.24c-2.11,0-3.82-1.71-3.82-3.82c0-1.9,1.54-3.43,3.43-3.43
		c1.71,0,3.09,1.38,3.09,3.09c0,1.54-1.25,2.78-2.78,2.78c-1.38,0-2.5-1.12-2.5-2.5c0-1.24,1.01-2.25,2.25-2.25
		c1.12,0,2.03,0.91,2.03,2.03c0,1.01-0.82,1.82-1.82,1.82c-0.91,0-1.64-0.74-1.64-1.64c0-0.82,0.66-1.48,1.48-1.48
		c0.73,0,1.33,0.6,1.33,1.33c0,0.66-0.54,1.2-1.2,1.2"/>
</g>
</svg>
